<?xml version="1.0" encoding="UTF-8" standalone="no"?>
<!-- Created with Inkscape (http://www.inkscape.org/) -->

<svg
   xmlns:dc="http://purl.org/dc/elements/1.1/"
   xmlns:cc="http://creativecommons.org/ns#"
   xmlns:rdf="http://www.w3.org/1999/02/22-rdf-syntax-ns#"
   xmlns:svg="http://www.w3.org/2000/svg"
   xmlns="http://www.w3.org/2000/svg"
   xmlns:sodipodi="http://sodipodi.sourceforge.net/DTD/sodipodi-0.dtd"
   xmlns:inkscape="http://www.inkscape.org/namespaces/inkscape"
   width="800mm"
   height="450mm"
   viewBox="0 0 800 450"
   version="1.1"
   id="svg960"
   inkscape:version="0.92.4 (33fec40, 2019-01-16)"
   sodipodi:docname="battleplan.svg"
   preserveAspectRatio="none">
  <defs
     id="defs954" />
  <sodipodi:namedview
     id="base"
     pagecolor="#ffffff"
     bordercolor="#666666"
     borderopacity="1.0"
     inkscape:pageopacity="0.0"
     inkscape:pageshadow="2"
     inkscape:zoom="0.1952738"
     inkscape:cx="1268.0861"
     inkscape:cy="1001.2182"
     inkscape:document-units="mm"
     inkscape:current-layer="layer1"
     showgrid="false"
     inkscape:window-width="1311"
     inkscape:window-height="713"
     inkscape:window-x="55"
     inkscape:window-y="27"
     inkscape:window-maximized="1" />
  <metadata
     id="metadata957">
    <rdf:RDF>
      <cc:Work
         rdf:about="">
        <dc:format>image/svg+xml</dc:format>
        <dc:type
           rdf:resource="http://purl.org/dc/dcmitype/StillImage" />
        <dc:title></dc:title>
      </cc:Work>
    </rdf:RDF>
  </metadata>
  <g
     inkscape:label="Layer 1"
     inkscape:groupmode="layer"
     id="layer1"
     transform="translate(0,153)">
    <rect
       y="-152.5"
       x="0.49999997"
       height="449"
       width="798.99994"
       id="rect1653"
       style="opacity:1;vector-effect:none;fill:#14491c;fill-opacity:1;stroke:none;stroke-width:0.574;stroke-linecap:butt;stroke-linejoin:miter;stroke-miterlimit:4;stroke-dasharray:none;stroke-dashoffset:0;stroke-opacity:1" />
    <path
       style="opacity:1;vector-effect:none;fill:#19732d;fill-opacity:1;stroke:#000000;stroke-width:3.77952766;stroke-linecap:butt;stroke-linejoin:miter;stroke-miterlimit:4;stroke-dasharray:none;stroke-dashoffset:0;stroke-opacity:1"
       d="M 3021.7324 313.38477 L 2821.6797 773.88281 L 2796.5664 1698.8984 L 3021.7324 1698.8984 L 3021.7324 313.38477 z "
       transform="matrix(0.26458333,0,0,0.26458333,0,-153)"
       id="path1957" />
    <path
       style="opacity:1;vector-effect:none;fill:#19732d;fill-opacity:1;stroke:#000000;stroke-width:3.77952766;stroke-linecap:butt;stroke-linejoin:miter;stroke-miterlimit:4;stroke-dasharray:none;stroke-dashoffset:0;stroke-opacity:1"
       d="M 1733.8418 1.890625 L 1839.6289 1698.8984 L 2199.166 1698.8984 L 2080.7695 1.890625 L 1733.8418 1.890625 z "
       transform="matrix(0.26458333,0,0,0.26458333,0,-153)"
       id="path1843" />
    <path
       style="opacity:1;vector-effect:none;fill:#19732d;fill-opacity:1;stroke:#000000;stroke-width:3.77952766;stroke-linecap:butt;stroke-linejoin:miter;stroke-miterlimit:4;stroke-dasharray:none;stroke-dashoffset:0;stroke-opacity:1"
       d="M 341.60938,1.890625 422.10156,1698.8984 H 704.4043 L 634.42383,1.890625 Z"
       transform="matrix(0.26458333,0,0,0.26458333,0,-153)"
       id="path1599"
       inkscape:connector-curvature="0" />
    <path
       style="opacity:1;vector-effect:none;fill:#19732d;fill-opacity:1;stroke:#000000;stroke-width:3.77952766;stroke-linecap:butt;stroke-linejoin:miter;stroke-miterlimit:4;stroke-dasharray:none;stroke-dashoffset:0;stroke-opacity:1"
       d="M 1.890625,1.890625 V 480.75391 L 214.52539,1698.8984 H 448.57617 L 143.85352,1.890625 Z"
       transform="matrix(0.26458333,0,0,0.26458333,0,-153)"
       id="path1537"
       inkscape:connector-curvature="0" />
    <path
       style="opacity:1;vector-effect:none;fill:#38973e;fill-opacity:1;stroke:#000000;stroke-width:3.77952766;stroke-linecap:butt;stroke-linejoin:miter;stroke-miterlimit:4;stroke-dasharray:none;stroke-dashoffset:0;stroke-opacity:1"
       d="M 7.3710938,1.890625 1.890625,55.712891 V 1698.8984 H 85.898438 L 306.18359,1.890625 Z"
       transform="matrix(0.26458333,0,0,0.26458333,0,-153)"
       id="path1553"
       inkscape:connector-curvature="0" />
    <path
       style="opacity:1;vector-effect:none;fill:#19732d;fill-opacity:1;stroke:#000000;stroke-width:3.77952766;stroke-linecap:butt;stroke-linejoin:miter;stroke-miterlimit:4;stroke-dasharray:none;stroke-dashoffset:0;stroke-opacity:1"
       d="M 926.30859 1.890625 L 957.62891 338.59766 L 1172.7129 507.5918 L 1231.0625 1.890625 L 926.30859 1.890625 z "
       transform="matrix(0.26458333,0,0,0.26458333,0,-153)"
       id="path1786" />
    <path
       style="opacity:1;vector-effect:none;fill:#19732d;fill-opacity:1;stroke:#000000;stroke-width:3.77952766;stroke-linecap:butt;stroke-linejoin:miter;stroke-miterlimit:4;stroke-dasharray:none;stroke-dashoffset:0;stroke-opacity:1"
       d="M 757.98828 1.890625 L 1065.3867 1698.8984 L 1392.1934 1698.8984 L 1011.4004 1.890625 L 757.98828 1.890625 z "
       transform="matrix(0.26458333,0,0,0.26458333,0,-153)"
       id="path1727" />
    <path
       style="opacity:1;vector-effect:none;fill:#38973e;fill-opacity:1;stroke:#000000;stroke-width:3.77952766;stroke-linecap:butt;stroke-linejoin:miter;stroke-miterlimit:4;stroke-dasharray:none;stroke-dashoffset:0;stroke-opacity:1"
       d="M 2028.0879 1.890625 C 1954.4057 628.59542 1744.0531 1160.6831 1542.5527 1698.8984 L 1874.1523 1698.8984 C 2072.9534 1132.4276 2212.1196 558.43708 2342.3633 1.890625 L 2028.0879 1.890625 z "
       transform="matrix(0.26458333,0,0,0.26458333,0,-153)"
       id="path1824" />
    <path
       style="opacity:1;vector-effect:none;fill:#19732d;fill-opacity:1;stroke:#000000;stroke-width:3.77952766;stroke-linecap:butt;stroke-linejoin:miter;stroke-miterlimit:4;stroke-dasharray:none;stroke-dashoffset:0;stroke-opacity:1"
       d="M 2434.7559 1.890625 L 2269.5215 1698.8984 L 2581.4551 1698.8984 L 2727.043 1.890625 L 2434.7559 1.890625 z "
       transform="matrix(0.26458333,0,0,0.26458333,0,-153)"
       id="path1900" />
    <path
       style="opacity:1;vector-effect:none;fill:#38973e;fill-opacity:1;stroke:#000000;stroke-width:3.77952766;stroke-linecap:butt;stroke-linejoin:miter;stroke-miterlimit:4;stroke-dasharray:none;stroke-dashoffset:0;stroke-opacity:1"
       d="M 2834.3203 1.890625 L 2395.3613 1698.8984 L 2682.0449 1698.8984 L 3021.7324 419.06836 L 3021.7324 1.890625 L 2834.3203 1.890625 z "
       transform="matrix(0.26458333,0,0,0.26458333,0,-153)"
       id="path1938" />
    <path
       style="opacity:1;vector-effect:none;fill:#38973e;fill-opacity:1;stroke:#000000;stroke-width:3.77952766;stroke-linecap:butt;stroke-linejoin:miter;stroke-miterlimit:4;stroke-dasharray:none;stroke-dashoffset:0;stroke-opacity:1"
       d="M 2114.8066 1.890625 C 2223.4862 574.51921 2252.0357 1190.8559 2479.123 1698.8984 L 2726.5918 1698.8984 C 2522.06 1162.4925 2453.2506 580.84673 2376.3691 1.890625 L 2114.8066 1.890625 z "
       transform="matrix(0.26458333,0,0,0.26458333,0,-153)"
       id="path1881" />
    <path
       style="opacity:1;vector-effect:none;fill:#38973e;fill-opacity:1;stroke:#000000;stroke-width:3.77952766;stroke-linecap:butt;stroke-linejoin:miter;stroke-miterlimit:4;stroke-dasharray:none;stroke-dashoffset:0;stroke-opacity:1"
       d="M 1274.8672 1.890625 C 1325.6662 567.55979 1328.9757 1133.2293 1302.8164 1698.8984 L 1623.418 1698.8984 C 1650.1076 1129.6657 1656.6335 561.98354 1564.5059 1.890625 L 1274.8672 1.890625 z "
       transform="matrix(0.26458333,0,0,0.26458333,0,-153)"
       id="path1743" />
    <path
       style="opacity:1;vector-effect:none;fill:#38973e;fill-opacity:1;stroke:#000000;stroke-width:3.77952766;stroke-linecap:butt;stroke-linejoin:miter;stroke-miterlimit:4;stroke-dasharray:none;stroke-dashoffset:0;stroke-opacity:1"
       d="M 580.96484,1.890625 C 621.33403,584.92642 601.75275,1150.8339 519.72266,1698.8984 h 281.6875 C 874.79741,1271.6717 927.75978,798.49207 836.98047,1.890625 Z"
       transform="matrix(0.26458333,0,0,0.26458333,0,-153)"
       id="path1583"
       inkscape:connector-curvature="0" />
    <path
       style="opacity:1;vector-effect:none;fill:#36af28;fill-opacity:1;stroke:#000000;stroke-width:3.77952766;stroke-linecap:butt;stroke-linejoin:miter;stroke-miterlimit:4;stroke-dasharray:none;stroke-dashoffset:0;stroke-opacity:1"
       d="m 198.8125,1.890625 c 25.57754,340.314325 101.76193,1264.495175 204,1697.007775 h 260.07227 c -0.71444,-2.7339 -1.45978,-5.5057 -2.27344,-8.3535 C 601.92469,1485.1417 471.31541,392.1464 425.80469,1.890625 Z"
       transform="matrix(0.26458333,0,0,0.26458333,0,-153)"
       id="path1521"
       inkscape:connector-curvature="0" />
    <path
       style="opacity:1;vector-effect:none;fill:#36af28;fill-opacity:1;stroke:#000000;stroke-width:3.77952766;stroke-linecap:butt;stroke-linejoin:miter;stroke-miterlimit:4;stroke-dasharray:none;stroke-dashoffset:0;stroke-opacity:1"
       d="M 872.86914,1.890625 C 498.01228,297.48548 166.6972,1095.1782 1.890625,1546.3535 v 152.5449 H 237.53711 C 370.70571,1325.0756 687.11909,482.47318 961.69727,101.98633 c 0,0 47.89403,-46.047282 99.16213,-100.095705 z"
       transform="matrix(0.26458333,0,0,0.26458333,0,-153)"
       id="path1505"
       inkscape:connector-curvature="0" />
    <path
       style="opacity:1;vector-effect:none;fill:#36af28;fill-opacity:1;stroke:#000000;stroke-width:3.77952766;stroke-linecap:butt;stroke-linejoin:miter;stroke-miterlimit:4;stroke-dasharray:none;stroke-dashoffset:0;stroke-opacity:1"
       d="M 1102.7812,1.890625 C 1063.7085,332.17563 943.30671,1267.4418 786.23633,1698.8984 H 1091.2285 C 1157.8574,1338.4662 1333.6418,372.91272 1374.2246,1.890625 Z"
       transform="matrix(0.26458333,0,0,0.26458333,0,-153)"
       id="path1670"
       inkscape:connector-curvature="0" />
    <path
       style="opacity:1;vector-effect:none;fill:#36af28;fill-opacity:1;stroke:#000000;stroke-width:3.77952766;stroke-linecap:butt;stroke-linejoin:miter;stroke-miterlimit:4;stroke-dasharray:none;stroke-dashoffset:0;stroke-opacity:1"
       d="M 1476.2949 1.890625 C 1573.5568 350.21354 1656.3434 1358.1283 1682.25 1698.8984 L 1976.5742 1698.8984 C 1965.7132 1270.3384 1888.893 387.14171 1776.6367 1.890625 L 1476.2949 1.890625 z "
       transform="matrix(0.26458333,0,0,0.26458333,0,-153)"
       id="path1805" />
    <path
       style="opacity:1;vector-effect:none;fill:#36af28;fill-opacity:1;stroke:#000000;stroke-width:3.77952766;stroke-linecap:butt;stroke-linejoin:miter;stroke-miterlimit:4;stroke-dasharray:none;stroke-dashoffset:0;stroke-opacity:1"
       d="M 2247.5781 1.890625 C 2265.2153 606.79598 2157.335 1160.0176 2014.627 1698.8984 L 2290.6973 1698.8984 C 2429.7281 1145.8726 2529.1011 583.69478 2543.4258 1.890625 L 2247.5781 1.890625 z "
       transform="matrix(0.26458333,0,0,0.26458333,0,-153)"
       id="path1862" />
    <path
       style="opacity:1;vector-effect:none;fill:#36af28;fill-opacity:1;stroke:#000000;stroke-width:3.77952766;stroke-linecap:butt;stroke-linejoin:miter;stroke-miterlimit:4;stroke-dasharray:none;stroke-dashoffset:0;stroke-opacity:1"
       d="m 2587.1016,1.890625 c 95.1735,565.669255 107.6251,1131.338475 80.1718,1697.007775 h 228.8145 C 2945.6177,1145.5106 2947.2057,582.53449 2860.4551,1.890625 Z"
       transform="matrix(0.26458333,0,0,0.26458333,0,-153)"
       id="path1919"
       inkscape:connector-curvature="0"
       sodipodi:nodetypes="ccccc" />
  </g>
</svg>
