<?xml version="1.0" encoding="UTF-8" standalone="no"?>
<!-- Created with Inkscape (http://www.inkscape.org/) -->

<svg
   xmlns:dc="http://purl.org/dc/elements/1.1/"
   xmlns:cc="http://creativecommons.org/ns#"
   xmlns:rdf="http://www.w3.org/1999/02/22-rdf-syntax-ns#"
   xmlns:svg="http://www.w3.org/2000/svg"
   xmlns="http://www.w3.org/2000/svg"
   xmlns:sodipodi="http://sodipodi.sourceforge.net/DTD/sodipodi-0.dtd"
   xmlns:inkscape="http://www.inkscape.org/namespaces/inkscape"
   width="300mm"
   height="100mm"
   viewBox="0 0 300 100"
   version="1.1"
   id="svg8"
   inkscape:version="0.92.4 (33fec40, 2019-01-16)"
   sodipodi:docname="button.svg"
   preserveAspectRatio="none">
  <defs
     id="defs2" />
  <sodipodi:namedview
     id="base"
     pagecolor="#ffffff"
     bordercolor="#666666"
     borderopacity="1.0"
     inkscape:pageopacity="0.0"
     inkscape:pageshadow="2"
     inkscape:zoom="0.70710678"
     inkscape:cx="589.66029"
     inkscape:cy="189.90369"
     inkscape:document-units="mm"
     inkscape:current-layer="layer1"
     showgrid="false"
     inkscape:window-width="1311"
     inkscape:window-height="713"
     inkscape:window-x="55"
     inkscape:window-y="27"
     inkscape:window-maximized="1" />
  <metadata
     id="metadata5">
    <rdf:RDF>
      <cc:Work
         rdf:about="">
        <dc:format>image/svg+xml</dc:format>
        <dc:type
           rdf:resource="http://purl.org/dc/dcmitype/StillImage" />
        <dc:title />
      </cc:Work>
    </rdf:RDF>
  </metadata>
  <g
     inkscape:label="Layer 1"
     inkscape:groupmode="layer"
     id="layer1"
     transform="translate(0,-197)">
    <rect
       ry="10.023028"
       y="196.99994"
       x="-2.2428771e-16"
       height="100"
       width="300"
       id="rect1406"
       style="opacity:1;vector-effect:none;fill:#8f1219;fill-opacity:1;stroke:none;stroke-width:3;stroke-linecap:butt;stroke-linejoin:miter;stroke-miterlimit:4;stroke-dasharray:none;stroke-dashoffset:0;stroke-opacity:1" />
    <path
       style="opacity:1;vector-effect:none;fill:#000000;fill-opacity:0.23880597;stroke:none;stroke-width:0.99999994px;stroke-linecap:butt;stroke-linejoin:miter;stroke-miterlimit:4;stroke-dasharray:none;stroke-dashoffset:0;stroke-opacity:1"
       d="M 60.257812,308.51953 0,325.875 v 14.19531 c 0,15.82057 9.603076,29.31241 23.320312,34.99805 5.730013,1.82073 10.82293,2.88476 14.5625,2.88476 H 1095.9766 c 20.9868,0 37.8808,-16.89601 37.8808,-37.88281 v -13.42969 l -39.0019,-15.88671 z"
       transform="matrix(0.26458333,0,0,0.26458333,0,197)"
       id="path2114"
       inkscape:connector-curvature="0"
       sodipodi:nodetypes="ccscsssccc" />
    <path
       style="opacity:1;vector-effect:none;fill:#ffffff;fill-opacity:0.06467662;stroke:none;stroke-width:0.99999994px;stroke-linecap:butt;stroke-linejoin:miter;stroke-miterlimit:4;stroke-dasharray:none;stroke-dashoffset:0;stroke-opacity:1"
       d="M 37.882812,0 C 16.896012,0 0,16.896012 0,37.882812 V 49.939453 L 46.125,66.3125 1085.2324,65.953794 1133.8574,49.298828 V 37.882812 C 1133.8574,16.896012 1116.9634,0 1095.9766,0 Z"
       transform="matrix(0.26458333,0,0,0.26458333,0,197)"
       id="path3401"
       inkscape:connector-curvature="0"
       sodipodi:nodetypes="ssccccsss" />
    <rect
       style="opacity:1;vector-effect:none;fill:#d23038;fill-opacity:1;stroke:none;stroke-width:3;stroke-linecap:butt;stroke-linejoin:miter;stroke-miterlimit:4;stroke-dasharray:none;stroke-dashoffset:0;stroke-opacity:1"
       id="rect1408"
       width="290"
       height="82"
       x="5"
       y="206"
       ry="8.2265453"
       rx="8.2265453" />
    <path
       style="fill:#ffffff;fill-opacity:0.06467662;stroke:none;stroke-width:0.26458332px;stroke-linecap:butt;stroke-linejoin:miter;stroke-opacity:1"
       d="M 13.202987,205.96173 C 8.6584363,205.96173 5,209.63059 5,214.1881 v 53.05206 c 36.425273,-15.50629 128.28662,-24.23573 145.59002,-24.23573 17.40185,0 102.94776,-6.41625 144.40998,-19.26084 v -9.55549 c 0,-4.55751 -3.65894,-8.22637 -8.20349,-8.22637 z"
       id="path1410"
       inkscape:connector-curvature="0" />
  </g>
</svg>
