<?xml version="1.0" encoding="UTF-8" standalone="no"?>
<!-- Created with Inkscape (http://www.inkscape.org/) -->

<svg
   xmlns:dc="http://purl.org/dc/elements/1.1/"
   xmlns:cc="http://creativecommons.org/ns#"
   xmlns:rdf="http://www.w3.org/1999/02/22-rdf-syntax-ns#"
   xmlns:svg="http://www.w3.org/2000/svg"
   xmlns="http://www.w3.org/2000/svg"
   xmlns:sodipodi="http://sodipodi.sourceforge.net/DTD/sodipodi-0.dtd"
   xmlns:inkscape="http://www.inkscape.org/namespaces/inkscape"
   width="300mm"
   height="100mm"
   viewBox="0 0 300 100"
   version="1.1"
   id="svg8"
   inkscape:version="0.92.4 (33fec40, 2019-01-16)"
   sodipodi:docname="button_disabled.svg"
   preserveAspectRatio="none">
  <defs
     id="defs2" />
  <sodipodi:namedview
     id="base"
     pagecolor="#ffffff"
     bordercolor="#666666"
     borderopacity="1.0"
     inkscape:pageopacity="0.0"
     inkscape:pageshadow="2"
     inkscape:zoom="0.56625504"
     inkscape:cx="542.85021"
     inkscape:cy="167.10381"
     inkscape:document-units="mm"
     inkscape:current-layer="layer1"
     showgrid="false"
     inkscape:window-width="1384"
     inkscape:window-height="787"
     inkscape:window-x="337"
     inkscape:window-y="142"
     inkscape:window-maximized="0" />
  <metadata
     id="metadata5">
    <rdf:RDF>
      <cc:Work
         rdf:about="">
        <dc:format>image/svg+xml</dc:format>
        <dc:type
           rdf:resource="http://purl.org/dc/dcmitype/StillImage" />
        <dc:title></dc:title>
      </cc:Work>
    </rdf:RDF>
  </metadata>
  <g
     inkscape:label="Layer 1"
     inkscape:groupmode="layer"
     id="layer1"
     transform="translate(0,-197)">
    <rect
       ry="10.023028"
       y="196.99994"
       x="-2.2428771e-16"
       height="100"
       width="300"
       id="rect1406"
       style="opacity:1;vector-effect:none;fill:#371d0d;fill-opacity:1;stroke:none;stroke-width:3;stroke-linecap:butt;stroke-linejoin:miter;stroke-miterlimit:4;stroke-dasharray:none;stroke-dashoffset:0;stroke-opacity:1" />
    <path
       style="opacity:1;vector-effect:none;fill:#000000;fill-opacity:0.23880597;stroke:none;stroke-width:0.99999994px;stroke-linecap:butt;stroke-linejoin:miter;stroke-miterlimit:4;stroke-dasharray:none;stroke-dashoffset:0;stroke-opacity:1"
       d="M 59.632812 301.64453 L 0 325.875 L 0 340.07031 C -3.5708759e-15 355.89088 9.603076 369.38272 23.320312 375.06836 C 29.050325 376.88909 34.143242 377.95312 37.882812 377.95312 L 1095.9766 377.95312 C 1116.9634 377.95312 1133.8574 361.05711 1133.8574 340.07031 L 1133.8574 326.64062 L 1094.2305 303.87891 L 59.632812 301.64453 z "
       transform="matrix(0.26458333,0,0,0.26458333,0,197)"
       id="path2114" />
    <path
       style="opacity:1;vector-effect:none;fill:#ffffff;fill-opacity:0.06467662;stroke:none;stroke-width:0.99999994px;stroke-linecap:butt;stroke-linejoin:miter;stroke-miterlimit:4;stroke-dasharray:none;stroke-dashoffset:0;stroke-opacity:1"
       d="M 37.882812 0 C 16.896012 0 0 16.896012 0 37.882812 L 0 49.939453 L 44.5 78.3125 L 1085.2324 77.974609 L 1133.8574 49.298828 L 1133.8574 37.882812 C 1133.8574 16.896012 1116.9634 0 1095.9766 0 L 37.882812 0 z "
       transform="matrix(0.26458333,0,0,0.26458333,0,197)"
       id="path3401" />
    <rect
       style="opacity:1;vector-effect:none;fill:#673312;fill-opacity:1;stroke:none;stroke-width:3;stroke-linecap:butt;stroke-linejoin:miter;stroke-miterlimit:4;stroke-dasharray:none;stroke-dashoffset:0;stroke-opacity:1"
       id="rect1408"
       width="290.82654"
       height="82.076454"
       x="4.5867286"
       y="205.96172"
       ry="8.2265453" />
    <path
       style="fill:#ffffff;fill-opacity:0.06467662;stroke:none;stroke-width:0.99999994px;stroke-linecap:butt;stroke-linejoin:miter;stroke-opacity:1"
       d="M 48.427734 33.871094 C 31.202514 33.871094 17.335938 47.737671 17.335938 64.962891 L 17.335938 265.47461 C 155.39871 206.86818 503.58093 173.875 569.16602 173.875 C 635.12426 173.875 959.36908 149.62461 1116.5234 101.07812 L 1116.5234 64.962891 C 1116.5234 47.737671 1102.6549 33.871094 1085.4297 33.871094 L 48.427734 33.871094 z "
       transform="matrix(0.26458333,0,0,0.26458333,0,197)"
       id="path1410" />
  </g>
</svg>
