<?xml version="1.0" encoding="UTF-8" standalone="no"?>
<!-- Created with Inkscape (http://www.inkscape.org/) -->

<svg
   xmlns:dc="http://purl.org/dc/elements/1.1/"
   xmlns:cc="http://creativecommons.org/ns#"
   xmlns:rdf="http://www.w3.org/1999/02/22-rdf-syntax-ns#"
   xmlns:svg="http://www.w3.org/2000/svg"
   xmlns="http://www.w3.org/2000/svg"
   xmlns:sodipodi="http://sodipodi.sourceforge.net/DTD/sodipodi-0.dtd"
   xmlns:inkscape="http://www.inkscape.org/namespaces/inkscape"
   width="100mm"
   height="100mm"
   viewBox="0 0 100 100"
   version="1.1"
   id="svg8"
   sodipodi:docname="dale1.svg"
   inkscape:version="0.92.4 (33fec40, 2019-01-16)"
   inkscape:export-filename="/home/jfakonas/dale1.png"
   inkscape:export-xdpi="95.900002"
   inkscape:export-ydpi="95.900002">
  <defs
     id="defs2" />
  <sodipodi:namedview
     id="base"
     pagecolor="#ffffff"
     bordercolor="#666666"
     borderopacity="1.0"
     inkscape:pageopacity="0.0"
     inkscape:pageshadow="2"
     inkscape:zoom="2.8284271"
     inkscape:cx="321.55045"
     inkscape:cy="177.53933"
     inkscape:document-units="mm"
     inkscape:current-layer="layer1"
     showgrid="false"
     inkscape:window-width="1311"
     inkscape:window-height="713"
     inkscape:window-x="55"
     inkscape:window-y="27"
     inkscape:window-maximized="1" />
  <metadata
     id="metadata5">
    <rdf:RDF>
      <cc:Work
         rdf:about="">
        <dc:format>image/svg+xml</dc:format>
        <dc:type
           rdf:resource="http://purl.org/dc/dcmitype/StillImage" />
        <dc:title />
      </cc:Work>
    </rdf:RDF>
  </metadata>
  <g
     inkscape:label="Layer 1"
     inkscape:groupmode="layer"
     id="layer1"
     transform="translate(0,-197)">
    <rect
       transform="matrix(-0.91564088,-0.40199724,-0.40199724,0.91564088,0,0)"
       y="181.01727"
       x="-111.77877"
       height="13.665491"
       width="4.1617432"
       id="rect879"
       style="opacity:1;vector-effect:none;fill:#c0db9d;fill-opacity:1;stroke:#000000;stroke-width:0.58728963;stroke-linecap:butt;stroke-linejoin:miter;stroke-miterlimit:4;stroke-dasharray:none;stroke-dashoffset:0;stroke-opacity:1" />
    <rect
       style="opacity:1;vector-effect:none;fill:#c0db9d;fill-opacity:1;stroke:#000000;stroke-width:0.58728963;stroke-linecap:butt;stroke-linejoin:miter;stroke-miterlimit:4;stroke-dasharray:none;stroke-dashoffset:0;stroke-opacity:1"
       id="rect877"
       width="4.1617432"
       height="13.665491"
       x="-77.987251"
       y="197.38206"
       transform="rotate(-23.703095)" />
    <circle
       style="fill:#ffffff;fill-opacity:1;stroke:#000000;stroke-width:0.61740911;stroke-miterlimit:4;stroke-dasharray:none;stroke-dashoffset:0;stroke-opacity:1"
       id="path10"
       cx="8.8700228"
       cy="207.94708"
       r="6.1880498" />
    <circle
       r="6.1880498"
       cy="207.94708"
       cx="28.300022"
       id="circle832"
       style="fill:#ffffff;fill-opacity:1;stroke:#000000;stroke-width:0.61740911;stroke-miterlimit:4;stroke-dasharray:none;stroke-dashoffset:0;stroke-opacity:1" />
    <path
       style="opacity:1;vector-effect:none;fill:#c0db9d;fill-opacity:1;stroke:#000000;stroke-width:0.58728963;stroke-linecap:butt;stroke-linejoin:miter;stroke-miterlimit:4;stroke-dasharray:none;stroke-dashoffset:0;stroke-opacity:1"
       d="m 8.8703624,201.75903 a 6.1880494,6.1880494 0 0 0 -6.1883886,6.18775 6.1880494,6.1880494 0 0 0 0.3011882,1.88115 8.5111047,8.5111047 0 0 1 8.209922,-6.30707 8.5111047,8.5111047 0 0 1 2.301025,0.32543 6.1880494,6.1880494 0 0 0 -4.6237466,-2.08726 z"
       id="circle868"
       inkscape:connector-curvature="0" />
    <path
       inkscape:connector-curvature="0"
       id="path873"
       d="m 28.29968,201.75903 a 6.1880494,6.1880494 0 0 1 6.18839,6.18775 6.1880494,6.1880494 0 0 1 -0.301187,1.88115 8.5111047,8.5111047 0 0 0 -8.209925,-6.30707 8.5111047,8.5111047 0 0 0 -2.301024,0.32543 6.1880494,6.1880494 0 0 1 4.623746,-2.08726 z"
       style="opacity:1;vector-effect:none;fill:#c0db9d;fill-opacity:1;stroke:#000000;stroke-width:0.58728963;stroke-linecap:butt;stroke-linejoin:miter;stroke-miterlimit:4;stroke-dasharray:none;stroke-dashoffset:0;stroke-opacity:1" />
    <circle
       style="fill:#000000;fill-opacity:1;stroke:#000000;stroke-width:0.37745517;stroke-miterlimit:4;stroke-dasharray:none;stroke-dashoffset:0;stroke-opacity:1"
       id="path66"
       cx="9.1564865"
       cy="209.43214"
       r="2.0176454" />
    <circle
       r="2.0176454"
       cy="209.43214"
       cx="27.968159"
       id="circle873"
       style="fill:#000000;fill-opacity:1;stroke:#000000;stroke-width:0.37745517;stroke-miterlimit:4;stroke-dasharray:none;stroke-dashoffset:0;stroke-opacity:1" />
    <path
       style="fill:#c0db9d;fill-opacity:1;stroke:#000000;stroke-width:0.59760052;stroke-linecap:butt;stroke-linejoin:miter;stroke-miterlimit:4;stroke-dasharray:none;stroke-opacity:1"
       d="m 71.434783,263.60891 c -11.979625,3.05932 -32.706186,5.01107 -37.379853,2.21866 -5.276034,-3.15234 -10.771297,-18.3063 -4.814579,-29.13208 3.797441,-6.16532 -21.4902634,0.52468 -17.97138,4.21607 4.522127,4.74381 4.528175,6.08453 5.227396,11.32512 0.69922,5.24061 1.809437,14.1063 0.326714,19.8955 -1.678981,6.55548 -4.168386,11.19002 2.313278,15.16912 6.481663,3.9791 17.115472,4.27325 23.370564,2.74282 6.088829,-1.48976 16.482412,-5.04987 21.975998,-7.90916 5.880821,-3.06084 12.7319,-9.66666 22.34821,-14.3493 12.52266,-6.09789 12.32346,-9.1212 5.462496,-9.42729 -2.070891,-0.0925 -6.649229,1.27012 -12.362921,2.91321"
       id="path925"
       inkscape:connector-curvature="0"
       sodipodi:nodetypes="cscszszssssc" />
    <path
       style="opacity:1;vector-effect:none;fill:#47226f;fill-opacity:0.40796021;stroke:#000000;stroke-width:0;stroke-linecap:butt;stroke-linejoin:miter;stroke-miterlimit:4;stroke-dasharray:none;stroke-dashoffset:0;stroke-opacity:1"
       d="m 329.99609,235.11719 c -7.88729,2.00922 -17.36858,4.77131 -27.89648,7.79883 L 269.99023,251.75 c -45.27732,11.56278 -123.61504,18.93876 -141.27929,8.38477 -0.18178,-0.10862 -0.36304,-0.22765 -0.54492,-0.34375 1.7902,3.39847 6.13407,10.64477 14.69298,12.75092 25.13717,6.18568 44.02177,13.27798 54.09188,14.56353 16.29804,2.08061 54.12214,0.12608 69.3499,-3.4668 39.99303,-9.43607 39.01895,-25.9027 47.84985,-31.90129 8.8309,-5.99859 13.34442,-11.98034 15.84546,-16.62019 z"
       transform="matrix(0.26458333,0,0,0.26458333,0,197)"
       id="path915"
       inkscape:connector-curvature="0"
       sodipodi:nodetypes="cccccssszc" />
    <path
       style="opacity:1;vector-effect:none;fill:#47226f;fill-opacity:0.40796021;stroke:#000000;stroke-width:0;stroke-linecap:butt;stroke-linejoin:miter;stroke-miterlimit:4;stroke-dasharray:none;stroke-dashoffset:0;stroke-opacity:1"
       d="m 54.705322,178.57476 c 1.289007,3.05806 4.275466,5.3285 6.195815,14.73731 6.426265,0.32329 10.184984,3.94339 17.208317,2.12752 7.206028,-1.8631 16.711823,-9.87816 21.767077,-11.55573 0.989339,-10.2845 1.948369,-15.00231 4.652209,-22.53447 z"
       transform="matrix(0.26458333,0,0,0.26458333,0,197)"
       id="path908"
       inkscape:connector-curvature="0"
       sodipodi:nodetypes="ccsccc" />
    <ellipse
       style="fill:#c0db9d;fill-opacity:1;stroke:#000000;stroke-width:0.57448274;stroke-miterlimit:4;stroke-dasharray:none;stroke-dashoffset:0;stroke-opacity:1"
       id="path875"
       cx="33.884892"
       cy="231.0688"
       rx="13.030222"
       ry="13.772109"
       transform="matrix(1,0,-0.06781291,0.99769806,0,0)" />
    <path
       style="fill:#b9785d;fill-opacity:1;stroke:#000000;stroke-width:0.60285485;stroke-miterlimit:4;stroke-dasharray:none;stroke-dashoffset:0;stroke-opacity:1"
       d="m 12.11313,232.00572 c -3.2020596,0 -5.7797252,2.8664 -5.7797252,6.42724 0,0.0408 0.00218,0.0809 0.0028,0.12138 5.6382302,-0.59491 10.1845872,-1.7267 20.5445352,0 6.71e-4,-0.0405 0.0028,-0.0807 0.0028,-0.12138 0,-3.56084 -2.577666,-6.42724 -5.779723,-6.42724 z"
       id="rect881"
       inkscape:connector-curvature="0"
       sodipodi:nodetypes="ssccsss" />
    <path
       style="fill:none;stroke:#000000;stroke-width:0.2101737px;stroke-linecap:butt;stroke-linejoin:miter;stroke-opacity:1"
       d="m 12.215534,232.86922 -2.8891176,3.97837"
       id="path888"
       inkscape:connector-curvature="0" />
    <path
       inkscape:connector-curvature="0"
       id="path892"
       d="m 14.550566,232.86922 -1.7216,3.97837"
       style="fill:none;stroke:#000000;stroke-width:0.2101737px;stroke-linecap:butt;stroke-linejoin:miter;stroke-opacity:1"
       sodipodi:nodetypes="cc" />
    <path
       sodipodi:nodetypes="cc"
       style="fill:none;stroke:#000000;stroke-width:0.2101737px;stroke-linecap:butt;stroke-linejoin:miter;stroke-opacity:1"
       d="m 16.607603,232.86922 0.0018,3.97837"
       id="path896"
       inkscape:connector-curvature="0" />
    <path
       inkscape:connector-curvature="0"
       id="path898"
       d="m 21.14923,232.86922 2.889118,3.97837"
       style="fill:none;stroke:#000000;stroke-width:0.2101737px;stroke-linecap:butt;stroke-linejoin:miter;stroke-opacity:1" />
    <path
       sodipodi:nodetypes="cc"
       style="fill:none;stroke:#000000;stroke-width:0.2101737px;stroke-linecap:butt;stroke-linejoin:miter;stroke-opacity:1"
       d="m 18.814198,232.86922 1.7216,3.97837"
       id="path900"
       inkscape:connector-curvature="0" />
    <ellipse
       style="opacity:1;vector-effect:none;fill:#4d4d4d;fill-opacity:1;stroke:none;stroke-width:0.57510513;stroke-linecap:butt;stroke-linejoin:miter;stroke-miterlimit:4;stroke-dasharray:none;stroke-dashoffset:0;stroke-opacity:1"
       id="path874"
       cx="-73.048531"
       cy="246.76634"
       rx="1.8072579"
       ry="10.993019"
       transform="matrix(0.80147523,-0.59802797,0.52992974,0.84804155,0,0)" />
    <path
       style="fill:#4d4d4d;fill-opacity:1;stroke:#000000;stroke-width:0.61740911;stroke-linecap:butt;stroke-linejoin:miter;stroke-miterlimit:4;stroke-dasharray:none;stroke-opacity:1"
       d="m 78.82328,263.77348 c 8.482077,-3.24572 14.623115,-21.62286 10.836532,-30.42925 -3.786582,-8.80643 -9.536718,-13.69091 -17.189322,-15.89971 -7.652605,-2.20878 -19.598461,-0.9345 -25.488589,3.31469 -5.89013,4.2492 -9.739759,9.20777 -10.821768,16.17458 -1.082008,6.9668 2.984408,15.00486 2.031383,19.55496 -1.14122,5.76846 -4.947232,6.76281 -4.397207,8.19884 0.550024,1.43603 2.387723,0.80121 6.102848,2.22027 4.27655,1.6335 15.905269,5.22418 21.265098,4.8044 5.359828,-0.41978 12.675222,-1.36327 15.794906,-3.94894 3.119685,-2.58568 1.453281,-4.4671 0.263779,-6.19472 -1.189501,-1.72762 -9.735717,-9.67889 -9.949941,-15.27438 -0.214223,-5.59549 0.634389,-5.63935 0.659136,-4.64201 0.02475,0.99735 -0.676983,2.00665 -0.676983,2.00665"
       id="path927"
       inkscape:connector-curvature="0"
       sodipodi:nodetypes="czzzzczszzzzzc" />
    <path
       sodipodi:nodetypes="cczcsczczc"
       inkscape:connector-curvature="0"
       id="path1030"
       d="m 35.201698,262.8412 c -0.673685,0.5807 -1.274908,1.24399 -1.115454,1.74883 0.550024,1.30629 2.252916,0.61309 6.427348,2.25297 4.174432,1.63989 16.683487,5.10159 20.648565,4.61694 5.359828,-0.41978 12.537604,-1.31757 15.657287,-3.90324 1.346854,-1.11631 2.276393,-2.58797 1.172821,-4.27957 -0.596225,2.9032 -2.732455,4.73828 -7.727457,5.5501 -4.995,0.81182 -15.344868,0.64173 -21.93177,-1.14355 -7.128137,-2.40202 -9.543164,-2.61572 -11.919474,-2.99849 -2.37631,-0.38277 -0.97717,-1.3845 -1.211866,-1.84399 z"
       style="opacity:1;vector-effect:none;fill:#351e3c;fill-opacity:0.68656718;stroke:#000000;stroke-width:0;stroke-linecap:butt;stroke-linejoin:miter;stroke-miterlimit:4;stroke-dasharray:none;stroke-dashoffset:0;stroke-opacity:1" />
    <text
       xml:space="preserve"
       style="font-style:normal;font-variant:normal;font-weight:bold;font-stretch:normal;font-size:33.91334534px;line-height:1.25;font-family:'Courier 10 Pitch';-inkscape-font-specification:'Courier 10 Pitch, Bold';font-variant-ligatures:normal;font-variant-caps:normal;font-variant-numeric:normal;font-feature-settings:normal;text-align:start;letter-spacing:0px;word-spacing:0px;writing-mode:lr-tb;text-anchor:start;fill:#ebebeb;fill-opacity:1;stroke:none;stroke-width:0.84782785"
       x="-24.454954"
       y="230.90421"
       id="text910"
       transform="matrix(0.77524409,-0.46999263,0.39733466,1.0490317,0,0)"><tspan
         sodipodi:role="line"
         id="tspan908"
         x="-24.454954"
         y="230.90421"
         style="font-style:normal;font-variant:normal;font-weight:bold;font-stretch:normal;font-size:33.91334534px;font-family:'Courier 10 Pitch';-inkscape-font-specification:'Courier 10 Pitch, Bold';font-variant-ligatures:normal;font-variant-caps:normal;font-variant-numeric:normal;font-feature-settings:normal;text-align:start;writing-mode:lr-tb;text-anchor:start;fill:#ebebeb;fill-opacity:1;stroke-width:0.84782785">3</tspan></text>
    <path
       style="opacity:1;vector-effect:none;fill:#47226f;fill-opacity:0.40796024;stroke:#000000;stroke-width:0;stroke-linecap:butt;stroke-linejoin:miter;stroke-miterlimit:4;stroke-dasharray:none;stroke-dashoffset:0;stroke-opacity:1"
       d="m 364.19531,244.36133 c -6.40448,2.53596 -19.55605,9.97241 -28.54571,13.61824 -15.45038,6.26603 -85.29494,54.08954 -110.61247,64.49427 -25.11559,10.32174 -59.88113,22.36167 -89.99595,24.61927 -19.15186,1.43575 -56.660233,-4.79531 -74.241731,-16.88142 14.261993,22.72423 75.946191,29.0403 99.856801,21.45042 23.0129,-5.63059 62.29543,-19.08581 83.05859,-29.89258 22.22673,-11.56853 48.11974,-36.53425 84.46485,-54.23242 20.10402,-9.78962 31.5069,-17.4759 36.01562,-23.17578 z"
       transform="matrix(0.26458333,0,0,0.26458333,0,197)"
       id="path889"
       inkscape:connector-curvature="0"
       sodipodi:nodetypes="csssccssc" />
    <path
       style="opacity:1;vector-effect:none;fill:#210145;fill-opacity:0.20895523;stroke:#000000;stroke-width:0;stroke-linecap:butt;stroke-linejoin:miter;stroke-miterlimit:4;stroke-dasharray:none;stroke-dashoffset:0;stroke-opacity:1"
       d="m 37.868123,249.86119 c 0,0 5.189564,9.88356 12.913587,7.64794 7.724023,-2.23562 13.772306,-0.53674 14.096151,0.65637 0.381053,1.40388 -5.337578,4.22109 -12.627122,3.52718 -3.951377,-0.37614 -7.749602,-1.79925 -9.337815,-2.14293 -1.672671,-0.36196 -5.162297,-0.73538 -5.162297,-0.73538 1.124323,-2.41657 0.394084,-6.80678 0.117496,-8.95318 z"
       id="path934"
       inkscape:connector-curvature="0"
       sodipodi:nodetypes="czssscc" />
    <path
       style="opacity:1;vector-effect:none;fill:#47226f;fill-opacity:0.1641791;stroke:#000000;stroke-width:0;stroke-linecap:butt;stroke-linejoin:miter;stroke-miterlimit:4;stroke-dasharray:none;stroke-dashoffset:0;stroke-opacity:1"
       d="M 117.2832 113.12695 C 114.60372 128.82702 106.40219 147.23493 90.595703 160.32031 C 82.29571 167.19145 71.571776 173.4152 61.519531 178.48438 A 48.403722 52.838158 27.373816 0 0 65.316406 178.68555 A 48.403722 52.838158 27.373816 0 0 118.09375 126.75391 A 48.403722 52.838158 27.373816 0 0 117.2832 113.12695 z "
       transform="matrix(0.26458333,0,0,0.26458333,0,197)"
       id="path975" />
    <path
       style="opacity:1;vector-effect:none;fill:#351e3c;fill-opacity:0.68656718;stroke:#000000;stroke-width:0;stroke-linecap:butt;stroke-linejoin:miter;stroke-miterlimit:4;stroke-dasharray:none;stroke-dashoffset:0;stroke-opacity:1"
       d="m 68.235236,241.92542 c -0.303451,6.65293 3.843186,10.86779 6.414881,12.08314 2.928844,1.38414 5.978844,1.80452 8.966127,0.17813 3.379025,-1.83965 5.360408,-5.78079 6.018869,-7.3015 -2.583881,10.75988 -7.489678,15.24147 -10.863031,16.57541 -1.291274,-3.23431 -12.660545,-11.86112 -11.219235,-19.71771 0.101247,-0.18379 0.530967,-0.7861 0.682389,-1.81747 z"
       id="path993"
       inkscape:connector-curvature="0"
       sodipodi:nodetypes="csscccc" />
    <path
       style="opacity:1;vector-effect:none;fill:#47226f;fill-opacity:0.16417913;stroke:#000000;stroke-width:0;stroke-linecap:butt;stroke-linejoin:miter;stroke-miterlimit:4;stroke-dasharray:none;stroke-dashoffset:0;stroke-opacity:1"
       d="m 129.0293,33.710938 c -2.21326,16.749526 -15.15158,25.799671 -27.45856,29.502195 2.06326,0.589735 3.85113,0.849365 5.997,0.857048 12.91662,-6.55e-4 22.78034,-9.778561 22.77992,-22.695181 -0.009,-2.610359 -0.45429,-5.200848 -1.31836,-7.664062 z"
       transform="matrix(0.26458333,0,0,0.26458333,0,197)"
       id="path1089"
       inkscape:connector-curvature="0"
       sodipodi:nodetypes="ccccc" />
    <path
       id="path1111"
       d="m 14.677347,205.91935 c -0.585591,4.43165 -3.953006,6.85222 -7.2092274,7.83185 0.545905,0.15603 0.8349805,0.20376 1.4027437,0.20579 3.4175207,-1.7e-4 6.1554107,-2.59233 6.1552997,-6.00985 -0.0023,-0.69066 -0.120195,-1.37606 -0.348816,-2.02779 z"
       style="opacity:1;vector-effect:none;fill:#47226f;fill-opacity:0.16417913;stroke:#000000;stroke-width:0;stroke-linecap:butt;stroke-linejoin:miter;stroke-miterlimit:4;stroke-dasharray:none;stroke-dashoffset:0;stroke-opacity:1"
       inkscape:connector-curvature="0"
       sodipodi:nodetypes="ccccc" />
    <path
       style="opacity:1;vector-effect:none;fill:#47226f;fill-opacity:0.40796024;stroke:#000000;stroke-width:0;stroke-linecap:butt;stroke-linejoin:miter;stroke-miterlimit:4;stroke-dasharray:none;stroke-dashoffset:0;stroke-opacity:1"
       d="m 65.439453,153.5957 c -15.756896,-0.13631 -24.57715,2.46593 -37.200189,3.87048 2.451241,3.38587 0.714375,1.29486 2.286026,2.96029 22.973065,-5.28467 68.774299,-1.12395 69.69454,-0.74406 1.19378,0.49281 1.4765,-0.41072 1.72341,-1.75977 -13.853543,-2.23188 -27.022627,-4.24491 -36.503787,-4.32694 z"
       transform="matrix(0.26458333,0,0,0.26458333,0,197)"
       id="path850"
       inkscape:connector-curvature="0"
       sodipodi:nodetypes="cccscc" />
  </g>
</svg>
