<?xml version="1.0" encoding="UTF-8" standalone="no"?>
<!-- Created with Inkscape (http://www.inkscape.org/) -->

<svg
   xmlns:dc="http://purl.org/dc/elements/1.1/"
   xmlns:cc="http://creativecommons.org/ns#"
   xmlns:rdf="http://www.w3.org/1999/02/22-rdf-syntax-ns#"
   xmlns:svg="http://www.w3.org/2000/svg"
   xmlns="http://www.w3.org/2000/svg"
   xmlns:sodipodi="http://sodipodi.sourceforge.net/DTD/sodipodi-0.dtd"
   xmlns:inkscape="http://www.inkscape.org/namespaces/inkscape"
   width="100mm"
   height="100mm"
   viewBox="0 0 100 100"
   version="1.1"
   id="svg8"
   sodipodi:docname="doug1.svg"
   inkscape:version="0.92.4 (33fec40, 2019-01-16)"
   inkscape:export-filename="/home/jfakonas/dale1.png"
   inkscape:export-xdpi="95.900002"
   inkscape:export-ydpi="95.900002">
  <defs
     id="defs2" />
  <sodipodi:namedview
     id="base"
     pagecolor="#ffffff"
     bordercolor="#666666"
     borderopacity="1.0"
     inkscape:pageopacity="0.0"
     inkscape:pageshadow="2"
     inkscape:zoom="1.0196332"
     inkscape:cx="78.256568"
     inkscape:cy="196.0296"
     inkscape:document-units="mm"
     inkscape:current-layer="layer1"
     showgrid="false"
     inkscape:window-width="1311"
     inkscape:window-height="713"
     inkscape:window-x="55"
     inkscape:window-y="27"
     inkscape:window-maximized="1" />
  <metadata
     id="metadata5">
    <rdf:RDF>
      <cc:Work
         rdf:about="">
        <dc:format>image/svg+xml</dc:format>
        <dc:type
           rdf:resource="http://purl.org/dc/dcmitype/StillImage" />
        <dc:title />
      </cc:Work>
    </rdf:RDF>
  </metadata>
  <g
     inkscape:label="Layer 1"
     inkscape:groupmode="layer"
     id="layer1"
     transform="translate(0,-197)">
    <path
       style="fill:#db9da5;fill-opacity:1;stroke:#000000;stroke-width:0.59760052;stroke-linecap:butt;stroke-linejoin:miter;stroke-miterlimit:4;stroke-dasharray:none;stroke-opacity:1"
       d="m 39.009058,259.77252 c -5.498504,-2.74595 -10.869624,-10.41647 -8.484303,-18.30638 l -18.338353,0.17936 c 2.17448,7.19156 -2.5796718,17.50554 -4.3541468,25.71604 -1.6789807,6.55548 -2.1500371,17.06158 4.3316268,21.04068 6.481663,3.9791 24.087949,3.17233 30.343041,1.6419 6.088829,-1.48976 16.482412,-5.04987 21.975998,-7.90916 5.880821,-3.06084 12.7319,-9.66666 22.34821,-14.3493 12.52266,-6.09789 10.305111,-9.30469 5.462496,-9.42729 -2.072292,-0.0525 -15.76511,-4.44033 -30.005377,-2.15665 -8.954416,1.436 -18.055066,6.17972 -23.279192,3.5708 z"
       id="path925"
       inkscape:connector-curvature="0"
       sodipodi:nodetypes="sccczssssss" />
    <rect
       transform="matrix(-0.91564088,-0.40199724,-0.40199724,0.91564088,0,0)"
       y="180.80417"
       x="-114.0899"
       height="13.665491"
       width="4.1617432"
       id="rect879"
       style="opacity:1;vector-effect:none;fill:#db9da5;fill-opacity:1;stroke:#000000;stroke-width:0.58728963;stroke-linecap:butt;stroke-linejoin:miter;stroke-miterlimit:4;stroke-dasharray:none;stroke-dashoffset:0;stroke-opacity:1" />
    <rect
       style="opacity:1;vector-effect:none;fill:#db9da5;fill-opacity:1;stroke:#000000;stroke-width:0.58728963;stroke-linecap:butt;stroke-linejoin:miter;stroke-miterlimit:4;stroke-dasharray:none;stroke-dashoffset:0;stroke-opacity:1"
       id="rect877"
       width="4.1617432"
       height="13.665491"
       x="-76.266205"
       y="198.93922"
       transform="rotate(-23.703095)" />
    <circle
       style="fill:#ffffff;fill-opacity:1;stroke:#000000;stroke-width:0.61740911;stroke-miterlimit:4;stroke-dasharray:none;stroke-dashoffset:0;stroke-opacity:1"
       id="path10"
       cx="11.071857"
       cy="208.68103"
       r="6.1880498" />
    <circle
       r="6.1880498"
       cy="208.68103"
       cx="30.501858"
       id="circle832"
       style="fill:#ffffff;fill-opacity:1;stroke:#000000;stroke-width:0.61740911;stroke-miterlimit:4;stroke-dasharray:none;stroke-dashoffset:0;stroke-opacity:1" />
    <circle
       style="fill:#000000;fill-opacity:1;stroke:#000000;stroke-width:0.37745517;stroke-miterlimit:4;stroke-dasharray:none;stroke-dashoffset:0;stroke-opacity:1"
       id="path66"
       cx="11.358321"
       cy="210.16609"
       r="2.0176454" />
    <circle
       r="2.0176454"
       cy="210.16609"
       cx="30.169994"
       id="circle873"
       style="fill:#000000;fill-opacity:1;stroke:#000000;stroke-width:0.37745517;stroke-miterlimit:4;stroke-dasharray:none;stroke-dashoffset:0;stroke-opacity:1" />
    <path
       style="opacity:1;vector-effect:none;fill:#6f222d;fill-opacity:0.55502391;stroke:#000000;stroke-width:0;stroke-linecap:butt;stroke-linejoin:miter;stroke-miterlimit:4;stroke-dasharray:none;stroke-dashoffset:0;stroke-opacity:1"
       d="m 362.13948,240.23523 c -2.19531,3.7111 -17.2178,14.46831 -26.48988,17.74434 -19.76885,6.98478 -85.29494,54.08954 -110.61247,64.49427 -25.11559,10.32174 -59.96873,21.39981 -89.99595,24.61927 -39.263107,4.20972 -84.121087,-5.0405 -101.702585,-17.12661 7.090297,32.04131 103.223155,28.24345 127.133765,20.65357 23.0129,-5.63059 61.98895,-18.90192 82.75211,-29.70869 22.22673,-11.56853 48.05844,-36.35036 84.40355,-54.04853 20.10402,-9.78962 34.15009,-20.15011 34.51146,-26.62762 z"
       transform="matrix(0.26458333,0,0,0.26458333,0,197)"
       id="path889"
       inkscape:connector-curvature="0"
       sodipodi:nodetypes="csssccssc" />
    <path
       style="opacity:1;vector-effect:none;fill:#47226f;fill-opacity:0.16417913;stroke:#000000;stroke-width:0;stroke-linecap:butt;stroke-linejoin:miter;stroke-miterlimit:4;stroke-dasharray:none;stroke-dashoffset:0;stroke-opacity:1"
       d="m 36.340837,206.6533 c -0.585592,4.43164 -4.008856,6.82616 -7.265078,7.80579 0.545905,0.15603 1.018945,0.22472 1.586707,0.22676 3.417522,-1.8e-4 6.027298,-2.58725 6.027187,-6.00477 -0.0024,-0.69066 -0.120198,-1.37606 -0.348816,-2.02778 z"
       id="path1089"
       inkscape:connector-curvature="0"
       sodipodi:nodetypes="ccccc" />
    <path
       id="circle853"
       style="fill:#db9da5;fill-opacity:1;stroke:#000000;stroke-width:0.57382113;stroke-miterlimit:4;stroke-dasharray:none;stroke-dashoffset:0;stroke-opacity:1;font-variant-east_asian:normal;opacity:1;vector-effect:none;stroke-linecap:butt;stroke-linejoin:miter"
       sodipodi:type="arc"
       sodipodi:cx="11.071857"
       sodipodi:cy="208.68103"
       sodipodi:rx="6.1880498"
       sodipodi:ry="6.1880498"
       sodipodi:start="3.403392"
       sodipodi:end="0.26179939"
       d="m 5.0946603,207.07945 a 6.1880498,6.1880498 0 0 1 4.3756119,-4.37562 6.1880498,6.1880498 0 0 1 5.9771968,1.60159 6.1880498,6.1880498 0 0 1 1.601586,5.9772 l -5.977198,-1.60159 z" />
    <path
       style="fill:#db9da5;fill-opacity:1;stroke:#000000;stroke-width:0.57382113;stroke-miterlimit:4;stroke-dasharray:none;stroke-dashoffset:0;stroke-opacity:1;font-variant-east_asian:normal;opacity:1;vector-effect:none;stroke-linecap:butt;stroke-linejoin:miter"
       id="circle855"
       sodipodi:type="arc"
       sodipodi:cx="30.501858"
       sodipodi:cy="208.68103"
       sodipodi:rx="6.1880498"
       sodipodi:ry="6.1880498"
       sodipodi:start="2.8797933"
       sodipodi:end="6.0213859"
       d="m 24.524661,210.28262 a 6.1880498,6.1880498 0 0 1 4.375612,-7.57879 6.1880498,6.1880498 0 0 1 7.578782,4.37562 l -5.977197,1.60158 z" />
    <path
       style="opacity:1;vector-effect:none;fill:#6f222d;fill-opacity:0.55502391;stroke:#000000;stroke-width:0;stroke-linecap:butt;stroke-linejoin:miter;stroke-miterlimit:4;stroke-dasharray:none;stroke-dashoffset:0;stroke-opacity:1"
       d="m 47.361328,174.35156 c 2.362525,7.62562 2.102977,12.31229 1.080334,21.4145 2.801312,0.82894 6.707486,14.53243 31.599303,14.63298 24.891815,0.10055 30.216735,-15.36397 33.293045,-16.31357 -0.74464,-5.31373 -2.18814,-12.45459 0.57617,-18.99172 -23.847513,-0.2855 -46.446994,-0.52935 -66.548832,-0.74219 z"
       transform="matrix(0.26458333,0,0,0.26458333,0,197)"
       id="path876"
       inkscape:connector-curvature="0"
       sodipodi:nodetypes="cczcccc" />
    <path
       style="fill:#db9da5;fill-opacity:1;stroke:#000000;stroke-width:0.574;stroke-miterlimit:4;stroke-dasharray:none;stroke-dashoffset:0;stroke-opacity:1"
       d="m 35.424044,224.77527 c 3.791001,1.81273 6.002641,12.34082 -0.189162,15.91498 -4.849468,2.7993 -3.876447,7.04421 -13.929252,7.10227 -11.247764,0.065 -9.346218,-3.39406 -14.948484,-6.9586 -5.60226574,-3.56455 -3.2373783,-13.32339 -0.3993076,-15.10864 2.8380703,-1.78524 3.2834793,-8.22395 14.3996056,-8.22394 12.21629,-1e-5 11.139728,5.39623 15.0666,7.27393 z"
       id="path875"
       inkscape:connector-curvature="0"
       sodipodi:nodetypes="ssszzss" />
    <path
       id="path1111"
       d="m 16.879182,206.65329 c -0.585591,4.43165 -3.953006,6.85222 -7.2092276,7.83185 0.5459046,0.15603 0.8349806,0.20376 1.4027436,0.20579 3.417521,-1.7e-4 6.155411,-2.59233 6.1553,-6.00985 -0.0023,-0.69066 -0.120195,-1.37606 -0.348816,-2.02779 z"
       style="opacity:1;vector-effect:none;fill:#47226f;fill-opacity:0.16417913;stroke:#000000;stroke-width:0;stroke-linecap:butt;stroke-linejoin:miter;stroke-miterlimit:4;stroke-dasharray:none;stroke-dashoffset:0;stroke-opacity:1"
       inkscape:connector-curvature="0"
       sodipodi:nodetypes="ccccc" />
    <path
       style="opacity:1;vector-effect:none;fill:#6f222d;fill-opacity:0.22009571;stroke:#000000;stroke-width:0;stroke-linecap:butt;stroke-linejoin:miter;stroke-miterlimit:4;stroke-dasharray:none;stroke-dashoffset:0;stroke-opacity:1"
       d="m 12.489765,144.83915 c 1.436204,9.15976 5.71271,15.97874 12.76351,20.46495 20.683546,13.34968 12.883475,25.93349 55.394709,25.68782 37.994846,-0.21944 33.704826,-16.20243 52.033526,-26.78246 6.03553,-3.48396 11.27143,-9.7731 13.38172,-19.28879 -9.35465,6.64864 -28.25769,15.25382 -32.24213,23.66 -8.67041,18.29246 -10.59043,19.1343 -35.360735,19.59775 -24.770303,0.46345 -24.500731,-4.38401 -33.123513,-17.5033 -6.202397,-9.43676 -23.70885,-16.05263 -32.847087,-25.83597 z"
       transform="matrix(0.26458333,0,0,0.26458333,0,197)"
       id="path909"
       inkscape:connector-curvature="0"
       sodipodi:nodetypes="cccccszsc" />
    <path
       style="fill:none;stroke:#000000;stroke-width:0.40000001;stroke-linecap:butt;stroke-linejoin:miter;stroke-miterlimit:4;stroke-dasharray:none;stroke-opacity:1"
       d="m 12.250908,240.81578 c 0,0 0.377156,-1.22087 1.80193,-1.12914 1.424773,0.0917 1.750319,0.66256 6.557217,0.66255 4.806898,-1e-5 5.232708,-0.64908 6.916918,-0.64912 1.684211,-4e-5 1.935882,1.06985 1.935882,1.06985"
       id="path929"
       inkscape:connector-curvature="0"
       sodipodi:nodetypes="czzzc" />
  </g>
</svg>
