<?xml version="1.0" encoding="UTF-8" standalone="no"?>
<!-- Created with Inkscape (http://www.inkscape.org/) -->

<svg
   xmlns:dc="http://purl.org/dc/elements/1.1/"
   xmlns:cc="http://creativecommons.org/ns#"
   xmlns:rdf="http://www.w3.org/1999/02/22-rdf-syntax-ns#"
   xmlns:svg="http://www.w3.org/2000/svg"
   xmlns="http://www.w3.org/2000/svg"
   xmlns:sodipodi="http://sodipodi.sourceforge.net/DTD/sodipodi-0.dtd"
   xmlns:inkscape="http://www.inkscape.org/namespaces/inkscape"
   width="100mm"
   height="100mm"
   viewBox="0 0 100 100"
   version="1.1"
   id="svg8"
   sodipodi:docname="gail1.svg"
   inkscape:version="0.92.4 (33fec40, 2019-01-16)"
   inkscape:export-filename="/home/jfakonas/dale1.png"
   inkscape:export-xdpi="95.900002"
   inkscape:export-ydpi="95.900002">
  <defs
     id="defs2">
    <inkscape:path-effect
       effect="powerstroke"
       id="path-effect1740"
       is_visible="true"
       offset_points="0,0.13229166"
       sort_points="true"
       interpolator_type="CubicBezierJohan"
       interpolator_beta="0.2"
       start_linecap_type="zerowidth"
       linejoin_type="extrp_arc"
       miter_limit="4"
       end_linecap_type="zerowidth" />
    <inkscape:path-effect
       effect="powerstroke"
       id="path-effect1736"
       is_visible="true"
       offset_points="0,0.13229166"
       sort_points="true"
       interpolator_type="CubicBezierJohan"
       interpolator_beta="0.2"
       start_linecap_type="zerowidth"
       linejoin_type="extrp_arc"
       miter_limit="4"
       end_linecap_type="zerowidth" />
    <inkscape:path-effect
       effect="powerstroke"
       id="path-effect1732"
       is_visible="true"
       offset_points="0,0.13229166"
       sort_points="true"
       interpolator_type="CubicBezierJohan"
       interpolator_beta="0.2"
       start_linecap_type="zerowidth"
       linejoin_type="extrp_arc"
       miter_limit="4"
       end_linecap_type="zerowidth" />
    <inkscape:path-effect
       effect="powerstroke"
       id="path-effect1728"
       is_visible="true"
       offset_points="0,0.13229166"
       sort_points="true"
       interpolator_type="CubicBezierJohan"
       interpolator_beta="0.2"
       start_linecap_type="zerowidth"
       linejoin_type="extrp_arc"
       miter_limit="4"
       end_linecap_type="zerowidth" />
    <inkscape:path-effect
       effect="powerstroke"
       id="path-effect1724"
       is_visible="true"
       offset_points="0,0.13229166"
       sort_points="true"
       interpolator_type="CubicBezierJohan"
       interpolator_beta="0.2"
       start_linecap_type="zerowidth"
       linejoin_type="extrp_arc"
       miter_limit="4"
       end_linecap_type="zerowidth" />
    <inkscape:path-effect
       end_linecap_type="zerowidth"
       miter_limit="4"
       linejoin_type="extrp_arc"
       start_linecap_type="zerowidth"
       interpolator_beta="0.2"
       interpolator_type="CubicBezierJohan"
       sort_points="true"
       offset_points="0,0.13229166"
       is_visible="true"
       id="path-effect1664"
       effect="powerstroke" />
    <inkscape:path-effect
       end_linecap_type="zerowidth"
       miter_limit="4"
       linejoin_type="extrp_arc"
       start_linecap_type="zerowidth"
       interpolator_beta="0.2"
       interpolator_type="CubicBezierJohan"
       sort_points="true"
       offset_points="0,0.13229166"
       is_visible="true"
       id="path-effect1660"
       effect="powerstroke" />
    <inkscape:path-effect
       end_linecap_type="zerowidth"
       miter_limit="4"
       linejoin_type="extrp_arc"
       start_linecap_type="zerowidth"
       interpolator_beta="0.2"
       interpolator_type="CubicBezierJohan"
       sort_points="true"
       offset_points="0,0.13229166"
       is_visible="true"
       id="path-effect1656"
       effect="powerstroke" />
    <inkscape:path-effect
       end_linecap_type="zerowidth"
       miter_limit="4"
       linejoin_type="extrp_arc"
       start_linecap_type="zerowidth"
       interpolator_beta="0.2"
       interpolator_type="CubicBezierJohan"
       sort_points="true"
       offset_points="0,0.13229166"
       is_visible="true"
       id="path-effect1652"
       effect="powerstroke" />
    <inkscape:path-effect
       end_linecap_type="zerowidth"
       miter_limit="4"
       linejoin_type="extrp_arc"
       start_linecap_type="zerowidth"
       interpolator_beta="0.2"
       interpolator_type="CubicBezierJohan"
       sort_points="true"
       offset_points="0,0.13229166"
       is_visible="true"
       id="path-effect1648"
       effect="powerstroke" />
    <inkscape:path-effect
       end_linecap_type="zerowidth"
       miter_limit="4"
       linejoin_type="extrp_arc"
       start_linecap_type="zerowidth"
       interpolator_beta="0.2"
       interpolator_type="CubicBezierJohan"
       sort_points="true"
       offset_points="0,0.13229166"
       is_visible="true"
       id="path-effect1644"
       effect="powerstroke" />
    <inkscape:path-effect
       end_linecap_type="zerowidth"
       miter_limit="4"
       linejoin_type="extrp_arc"
       start_linecap_type="zerowidth"
       interpolator_beta="0.2"
       interpolator_type="CubicBezierJohan"
       sort_points="true"
       offset_points="0,0.13229166"
       is_visible="true"
       id="path-effect1640"
       effect="powerstroke" />
    <inkscape:path-effect
       end_linecap_type="zerowidth"
       miter_limit="4"
       linejoin_type="extrp_arc"
       start_linecap_type="zerowidth"
       interpolator_beta="0.2"
       interpolator_type="CubicBezierJohan"
       sort_points="true"
       offset_points="0,0.13229166"
       is_visible="true"
       id="path-effect1636"
       effect="powerstroke" />
    <inkscape:path-effect
       end_linecap_type="zerowidth"
       miter_limit="4"
       linejoin_type="extrp_arc"
       start_linecap_type="zerowidth"
       interpolator_beta="0.2"
       interpolator_type="CubicBezierJohan"
       sort_points="true"
       offset_points="0,0.13229166"
       is_visible="true"
       id="path-effect1632"
       effect="powerstroke" />
    <inkscape:path-effect
       effect="powerstroke"
       id="path-effect1628"
       is_visible="true"
       offset_points="0,0.13229166"
       sort_points="true"
       interpolator_type="CubicBezierJohan"
       interpolator_beta="0.2"
       start_linecap_type="zerowidth"
       linejoin_type="extrp_arc"
       miter_limit="4"
       end_linecap_type="zerowidth" />
    <inkscape:path-effect
       effect="powerstroke"
       id="path-effect1624"
       is_visible="true"
       offset_points="0,0.13229166"
       sort_points="true"
       interpolator_type="CubicBezierJohan"
       interpolator_beta="0.2"
       start_linecap_type="zerowidth"
       linejoin_type="extrp_arc"
       miter_limit="4"
       end_linecap_type="zerowidth" />
    <inkscape:path-effect
       effect="powerstroke"
       id="path-effect1620"
       is_visible="true"
       offset_points="0,0.13229166"
       sort_points="true"
       interpolator_type="CubicBezierJohan"
       interpolator_beta="0.2"
       start_linecap_type="zerowidth"
       linejoin_type="extrp_arc"
       miter_limit="4"
       end_linecap_type="zerowidth" />
    <inkscape:path-effect
       effect="powerstroke"
       id="path-effect1616"
       is_visible="true"
       offset_points="0,0.13229166"
       sort_points="true"
       interpolator_type="CubicBezierJohan"
       interpolator_beta="0.2"
       start_linecap_type="zerowidth"
       linejoin_type="extrp_arc"
       miter_limit="4"
       end_linecap_type="zerowidth" />
    <inkscape:path-effect
       effect="powerstroke"
       id="path-effect1612"
       is_visible="true"
       offset_points="0,0.13229166"
       sort_points="true"
       interpolator_type="CubicBezierJohan"
       interpolator_beta="0.2"
       start_linecap_type="zerowidth"
       linejoin_type="extrp_arc"
       miter_limit="4"
       end_linecap_type="zerowidth" />
    <inkscape:path-effect
       effect="powerstroke"
       id="path-effect1608"
       is_visible="true"
       offset_points="0,0.13229166"
       sort_points="true"
       interpolator_type="CubicBezierJohan"
       interpolator_beta="0.2"
       start_linecap_type="zerowidth"
       linejoin_type="extrp_arc"
       miter_limit="4"
       end_linecap_type="zerowidth" />
    <inkscape:path-effect
       effect="powerstroke"
       id="path-effect1592"
       is_visible="true"
       offset_points="0,0.13229166"
       sort_points="true"
       interpolator_type="CubicBezierJohan"
       interpolator_beta="0.2"
       start_linecap_type="zerowidth"
       linejoin_type="extrp_arc"
       miter_limit="4"
       end_linecap_type="zerowidth" />
    <inkscape:path-effect
       effect="powerstroke"
       id="path-effect1588"
       is_visible="true"
       offset_points="0,0.13229166"
       sort_points="true"
       interpolator_type="CubicBezierJohan"
       interpolator_beta="0.2"
       start_linecap_type="zerowidth"
       linejoin_type="extrp_arc"
       miter_limit="4"
       end_linecap_type="zerowidth" />
    <inkscape:path-effect
       effect="powerstroke"
       id="path-effect1584"
       is_visible="true"
       offset_points="0,0.13229166"
       sort_points="true"
       interpolator_type="CubicBezierJohan"
       interpolator_beta="0.2"
       start_linecap_type="zerowidth"
       linejoin_type="extrp_arc"
       miter_limit="4"
       end_linecap_type="zerowidth" />
  </defs>
  <sodipodi:namedview
     id="base"
     pagecolor="#ffffff"
     bordercolor="#666666"
     borderopacity="1.0"
     inkscape:pageopacity="0.0"
     inkscape:pageshadow="2"
     inkscape:zoom="2.0392665"
     inkscape:cx="174.3043"
     inkscape:cy="185.83625"
     inkscape:document-units="mm"
     inkscape:current-layer="layer1"
     showgrid="false"
     inkscape:window-width="1865"
     inkscape:window-height="1025"
     inkscape:window-x="55"
     inkscape:window-y="27"
     inkscape:window-maximized="1" />
  <metadata
     id="metadata5">
    <rdf:RDF>
      <cc:Work
         rdf:about="">
        <dc:format>image/svg+xml</dc:format>
        <dc:type
           rdf:resource="http://purl.org/dc/dcmitype/StillImage" />
        <dc:title />
      </cc:Work>
    </rdf:RDF>
  </metadata>
  <g
     inkscape:label="Layer 1"
     inkscape:groupmode="layer"
     id="layer1"
     transform="translate(0,-197)">
    <circle
       style="opacity:1;vector-effect:none;fill:#ffffff;fill-opacity:0.98564597;stroke:#000000;stroke-width:0.5;stroke-linecap:butt;stroke-linejoin:miter;stroke-miterlimit:4;stroke-dasharray:none;stroke-dashoffset:0;stroke-opacity:1"
       id="path1749-5-93"
       cx="27.527546"
       cy="247.78308"
       r="1.0550458" />
    <circle
       style="opacity:1;vector-effect:none;fill:#ffffff;fill-opacity:0.98564597;stroke:#000000;stroke-width:0.5;stroke-linecap:butt;stroke-linejoin:miter;stroke-miterlimit:4;stroke-dasharray:none;stroke-dashoffset:0;stroke-opacity:1"
       id="path1749"
       cx="19.005213"
       cy="249.12448"
       r="1.0550458" />
    <rect
       transform="matrix(-0.84097836,-0.54106875,-0.28698806,0.95793416,0,0)"
       y="167.2408"
       x="-92.873985"
       height="13.161462"
       width="3.1155541"
       id="rect879"
       style="opacity:1;vector-effect:none;fill:#ca9ddb;fill-opacity:1;stroke:#000000;stroke-width:0.51007605;stroke-linecap:butt;stroke-linejoin:miter;stroke-miterlimit:4;stroke-dasharray:none;stroke-dashoffset:0;stroke-opacity:1" />
    <rect
       style="opacity:1;vector-effect:none;fill:#ca9ddb;fill-opacity:1;stroke:#000000;stroke-width:0.5101518;stroke-linecap:butt;stroke-linejoin:miter;stroke-miterlimit:4;stroke-dasharray:none;stroke-dashoffset:0;stroke-opacity:1"
       id="rect877"
       width="3.1170797"
       height="13.179503"
       x="-54.438011"
       y="190.35101"
       transform="matrix(0.84063118,-0.541608,0.28661718,0.95804519,0,0)" />
    <path
       style="fill:#ca9ddb;fill-opacity:1;stroke:#000000;stroke-width:0.59760052;stroke-linecap:butt;stroke-linejoin:miter;stroke-miterlimit:4;stroke-dasharray:none;stroke-opacity:1"
       d="m 72.352214,263.42542 c -11.979625,3.05932 -32.706186,5.01107 -37.379853,2.21866 -5.276034,-3.15234 -11.688728,-18.48979 -5.73201,-29.31557 l -14.485142,3.66562 c 5.942704,8.27147 7.705842,15.21084 5.839679,23.0022 -1.866163,7.79136 -10.051403,13.29201 -6.034881,19.73625 4.016522,6.44424 28.548164,4.44044 36.655994,1.0062 8.10783,-3.43425 24.102214,-14.16265 33.937676,-16.9151 9.835461,-2.75245 14.39937,-10.15915 8.057383,-8.64882 -2.01656,0.48024 -6.649229,1.27012 -12.362921,2.91321"
       id="path925"
       inkscape:connector-curvature="0"
       sodipodi:nodetypes="cscczzzzsc" />
    <path
       style="fill:#610f53;fill-opacity:0.56459333;stroke:none;stroke-width:0.26458332px;stroke-linecap:butt;stroke-linejoin:miter;stroke-opacity:1"
       d="m 27.932006,238.72551 -12.043396,2.90842 c 1.160095,1.74509 2.485897,3.60561 3.267214,5.26249 0.925582,0.20254 1.408501,1.03727 3.071089,0.91822 1.662587,-0.11906 3.310057,-1.91659 4.398755,-3.04109 0.130648,-2.01836 0.598853,-4.13596 1.306338,-6.04804 z"
       id="path1744"
       inkscape:connector-curvature="0"
       sodipodi:nodetypes="ccczcc" />
    <path
       style="fill:#ca9ddb;fill-opacity:1;stroke:#000000;stroke-width:0.57382113;stroke-miterlimit:4;stroke-dasharray:none;stroke-dashoffset:0;stroke-opacity:1"
       d="m 31.509763,228.93576 c 0.248375,7.99217 -5.930936,16.62594 -12.760357,16.62594 -5.178044,0 -10.1877033,-9.23289 -9.32826,-16.88082 0.5347501,-4.75859 4.183695,-9.59882 11.379601,-9.68256 5.574588,-0.0649 10.535038,4.33922 10.709016,9.93744 z"
       id="path875"
       inkscape:connector-curvature="0"
       sodipodi:nodetypes="sssss" />
    <ellipse
       style="opacity:1;vector-effect:none;fill:#a5008a;fill-opacity:1;stroke:none;stroke-width:0.59432888;stroke-linecap:butt;stroke-linejoin:miter;stroke-miterlimit:4;stroke-dasharray:none;stroke-dashoffset:0;stroke-opacity:1"
       id="path874"
       cx="-82.522156"
       cy="249.5632"
       rx="1.7618167"
       ry="9.2543697"
       transform="matrix(0.82646438,-0.56298901,0.56483185,0.82520603,0,0)" />
    <path
       style="fill:#a5008a;fill-opacity:1;stroke:#000000;stroke-width:0.63913453;stroke-linecap:butt;stroke-linejoin:miter;stroke-miterlimit:4;stroke-dasharray:none;stroke-opacity:1"
       d="m 80.004801,262.25577 c 9.042842,-3.26247 19.38858,-8.80344 12.726655,-23.20897 -6.661925,-14.40553 -33.354967,-19.30625 -46.281892,-11.17451 -6.279537,4.27113 -10.579289,9.62416 -11.732831,16.62692 -1.153542,7.00276 2.399245,8.81158 1.383214,13.38516 -1.216668,5.79824 -4.03873,3.78191 -3.452342,5.22535 0.586387,1.44345 1.896858,0.87022 5.857597,2.29661 4.55928,1.64193 16.956795,5.25114 22.670972,4.82919 5.714175,-0.42194 13.513203,-1.3703 16.839135,-3.96932 3.325933,-2.59902 1.54936,-4.49015 0.281218,-6.22669 -1.268141,-1.73654 -9.792512,-9.65968 -10.607749,-15.35322 -0.815237,-5.69354 0.539098,-5.89964 0.43374,-4.74665 l -0.43374,4.74665"
       id="path927"
       inkscape:connector-curvature="0"
       sodipodi:nodetypes="czczczszzzzsc" />
    <g
       id="g1703"
       transform="matrix(1.0515884,0,0,1.0000037,-0.33299363,-0.70336108)">
      <path
         sodipodi:nodetypes="ccccc"
         inkscape:connector-curvature="0"
         id="path1490"
         d="m 12.328467,238.61691 c 2.225066,0.49535 6.16172,-0.90813 6.16172,-0.90813 0,0 5.679363,0.99069 6.22396,0.74302 0.544597,-0.24767 -3.469858,3.13719 -6.0528,3.24039 -2.582944,0.10321 -6.33288,-3.07528 -6.33288,-3.07528 z"
         style="opacity:1;vector-effect:none;fill:#573963;fill-opacity:1;stroke:none;stroke-width:0.63405895;stroke-linecap:butt;stroke-linejoin:miter;stroke-miterlimit:4;stroke-dasharray:none;stroke-dashoffset:0;stroke-opacity:1" />
      <path
         sodipodi:nodetypes="czzcccc"
         inkscape:connector-curvature="0"
         id="path1517"
         d="m 13.206744,238.45677 c 0,0 0.924168,0.84649 1.936441,0.93403 1.012274,0.0875 5.796698,0.11708 6.733537,-0.0291 0.936838,-0.14619 1.804412,-0.93404 1.804412,-0.93404 0,0 -3.890412,-0.6787 -5.190947,-0.7188 -1.300534,-0.0401 -5.283443,0.74799 -5.283443,0.74799 z"
         style="opacity:1;vector-effect:none;fill:#efd6fb;fill-opacity:1;stroke:#000000;stroke-width:0.27260974px;stroke-linecap:butt;stroke-linejoin:miter;stroke-miterlimit:4;stroke-dasharray:none;stroke-dashoffset:0;stroke-opacity:1" />
      <path
         sodipodi:nodetypes="ccczccccc"
         inkscape:connector-curvature="0"
         id="path1453"
         d="m 17.61857,235.84655 c -0.762217,-0.003 -2.039609,0.73526 -3.238007,1.7358 -1.597867,1.33404 -2.819758,0.33289 -2.819758,0.33289 0.483984,1.68609 6.190463,0.31491 6.95558,0.31475 0.765119,-1.6e-4 6.495561,1.37155 6.979608,-0.31475 0,0 -1.221891,1.00115 -2.819757,-0.33289 -1.597866,-1.33405 -3.336658,-2.20126 -3.806618,-1.46754 -0.315106,0.57916 -0.416258,0.35568 -0.682438,0 -0.11749,-0.18343 -0.314538,-0.26722 -0.56861,-0.26826 z"
         style="fill:#aa0000;stroke:#000000;stroke-width:0.32293785px;stroke-linecap:butt;stroke-linejoin:miter;stroke-opacity:1" />
      <path
         inkscape:connector-curvature="0"
         id="path1515"
         d="m 13.837778,240.17763 9.13366,-0.0359 c 0,0 -2.085026,1.63302 -4.621289,1.63302 -2.536265,0 -4.512371,-1.59714 -4.512371,-1.59714 z"
         style="fill:#efd6fb;fill-opacity:1;stroke:#000000;stroke-width:0.27260974px;stroke-linecap:butt;stroke-linejoin:miter;stroke-opacity:1" />
      <path
         sodipodi:nodetypes="ccccc"
         inkscape:connector-curvature="0"
         id="path1458"
         d="m 11.560805,237.91524 c 0,0 2.839082,3.08006 6.833747,2.87994 3.994664,-0.20009 7.101441,-2.87994 7.101441,-2.87994 -2.64669,2.73698 -4.031551,4.86552 -7.300829,4.95581 -2.720964,0.18466 -3.625465,-1.58378 -6.634359,-4.95581 z"
         style="fill:#aa0000;stroke:#000000;stroke-width:0.32293788px;stroke-linecap:butt;stroke-linejoin:miter;stroke-opacity:1" />
    </g>
    <g
       id="g1680"
       transform="translate(0.91743119,2.0183486)">
      <g
         transform="matrix(1,0,-0.07988257,1,17.047802,1.0268246)"
         id="g1540">
        <circle
           style="fill:#ffffff;fill-opacity:1;stroke:#000000;stroke-width:0.61740911;stroke-miterlimit:4;stroke-dasharray:none;stroke-dashoffset:0;stroke-opacity:1"
           id="path10"
           cx="8.8700228"
           cy="207.94708"
           r="6.1880498" />
        <path
           style="opacity:1;vector-effect:none;fill:#ca9ddb;fill-opacity:1;stroke:#000000;stroke-width:0.58728963;stroke-linecap:butt;stroke-linejoin:miter;stroke-miterlimit:4;stroke-dasharray:none;stroke-dashoffset:0;stroke-opacity:1"
           d="m 8.8703624,201.75903 a 6.1880494,6.1880494 0 0 0 -6.1883886,6.18775 6.1880494,6.1880494 0 0 0 0.3011882,1.88115 8.5111047,8.5111047 0 0 1 8.209922,-6.30707 8.5111047,8.5111047 0 0 1 2.301025,0.32543 6.1880494,6.1880494 0 0 0 -4.6237466,-2.08726 z"
           id="circle868"
           inkscape:connector-curvature="0" />
        <path
           id="path1111"
           d="m 14.677347,205.91935 c -0.585591,4.43165 -3.953006,6.85222 -7.2092274,7.83185 0.545905,0.15603 0.8349805,0.20376 1.4027437,0.20579 3.4175207,-1.7e-4 6.1554107,-2.59233 6.1552997,-6.00985 -0.0023,-0.69066 -0.120195,-1.37606 -0.348816,-2.02779 z"
           style="opacity:1;vector-effect:none;fill:#47226f;fill-opacity:0.16417913;stroke:#000000;stroke-width:0;stroke-linecap:butt;stroke-linejoin:miter;stroke-miterlimit:4;stroke-dasharray:none;stroke-dashoffset:0;stroke-opacity:1"
           inkscape:connector-curvature="0"
           sodipodi:nodetypes="ccccc" />
      </g>
      <circle
         r="2.0176454"
         cy="210.71655"
         cx="9.615202"
         id="path66"
         style="fill:#000000;fill-opacity:1;stroke:#000000;stroke-width:0.37745517;stroke-miterlimit:4;stroke-dasharray:none;stroke-dashoffset:0;stroke-opacity:1" />
      <path
         inkscape:original-d="M 3.2693697,210.85475 C 2.3394495,210.16514 0.45871558,210.0734 0.45871558,210.0734"
         inkscape:path-effect="#path-effect1584"
         inkscape:connector-curvature="0"
         id="path1582"
         d="m 3.2693697,210.85475 c 0,0 0.078801,-0.10626 0.078801,-0.10626 -0.1820178,-0.13498 -0.4625994,-0.28213 -0.8757568,-0.40716 -0.3040528,-0.092 -0.6303455,-0.15713 -0.9449893,-0.20089 -0.81090111,-0.11277 -1.06870922,-0.067 -1.06870922,-0.067 0,0 0.2590266,0.0127 1.04450472,0.1971 0.306445,0.0719 0.6147275,0.1609 0.9001554,0.27164 0.3891401,0.15097 0.6263884,0.29962 0.7871928,0.41887 0,0 0.078801,-0.10626 0.078801,-0.10626 z"
         style="fill:#000000;fill-rule:nonzero;stroke:none;stroke-width:0.26458332px;stroke-linecap:butt;stroke-linejoin:miter;stroke-opacity:1" />
      <path
         inkscape:original-d="M 3.9449541,209.66055 C 2.798165,207.3211 0.87155961,207.50459 0.87155961,207.50459"
         inkscape:path-effect="#path-effect1588"
         inkscape:connector-curvature="0"
         id="path1586"
         d="m 3.9449541,209.66055 c 0,0 0.1187874,-0.0582 0.1187874,-0.0582 -0.2153718,-0.43936 -0.5416094,-0.93757 -1.0112646,-1.34404 -0.3459075,-0.29937 -0.7067262,-0.4948 -1.0499924,-0.61453 -0.8563557,-0.29871 -1.13092489,-0.13916 -1.13092489,-0.13916 0,0 0.28921619,-0.0898 1.08237769,0.26222 0.3186599,0.1414 0.645107,0.34927 0.9554549,0.64837 0.4231321,0.40779 0.7098494,0.88147 0.9167745,1.3036 0,0 0.1187874,-0.0582 0.1187874,-0.0582 z"
         style="fill:#000000;fill-rule:nonzero;stroke:none;stroke-width:0.26458332px;stroke-linecap:butt;stroke-linejoin:miter;stroke-opacity:1" />
      <path
         inkscape:original-d="M 4.678899,208.33028 C 3.7614677,205.76147 2.5229357,204.66055 2.5229357,204.66055"
         inkscape:path-effect="#path-effect1592"
         inkscape:connector-curvature="0"
         id="path1590"
         d="m 4.678899,208.33028 c 0,0 0.1245846,-0.0445 0.1245846,-0.0445 -0.3419624,-0.9575 -0.862331,-1.97268 -1.4927075,-2.79203 -0.5825659,-0.7572 -0.7878404,-0.83321 -0.7878404,-0.83321 0,0 0.1654566,0.12533 0.6800494,0.90991 0.5821078,0.88752 1.0014122,1.82455 1.3513293,2.80431 0,0 0.1245846,-0.0445 0.1245846,-0.0445 z"
         style="fill:#000000;fill-rule:nonzero;stroke:none;stroke-width:0.26458332px;stroke-linecap:butt;stroke-linejoin:miter;stroke-opacity:1" />
      <path
         transform="matrix(1.2435522,0,0,1.1138965,-1.4841844,-23.563294)"
         inkscape:original-d="M 5.9633027,206.86239 C 5.7339446,205.44037 4.5871558,204.06422 4.5871558,204.06422"
         inkscape:path-effect="#path-effect1608"
         inkscape:connector-curvature="0"
         id="path1606"
         d="m 5.9633027,206.86239 c 0,0 0.1306038,-0.0211 0.1306038,-0.0211 -0.087493,-0.54245 -0.3694679,-1.22828 -0.8480769,-1.94549 -0.4590705,-0.68792 -0.6586738,-0.83161 -0.6586738,-0.83161 0,0 0.1564782,0.18481 0.5454545,0.90004 0.4217146,0.77543 0.6144581,1.38829 0.7000886,1.9192 0,0 0.1306038,-0.0211 0.1306038,-0.0211 z"
         style="fill:#000000;fill-rule:nonzero;stroke:none;stroke-width:0.26458332px;stroke-linecap:butt;stroke-linejoin:miter;stroke-opacity:1" />
      <path
         transform="matrix(1.2236064,0,0,1.1911508,-1.7516911,-39.320743)"
         inkscape:original-d="m 7.7064218,205.66973 c -0.321101,-1.14679 -1.5137614,-2.84404 -1.5137614,-2.84404"
         inkscape:path-effect="#path-effect1612"
         inkscape:connector-curvature="0"
         id="path1610"
         d="m 7.7064218,205.66973 c 0,0 0.1273921,-0.0357 0.1273921,-0.0357 -0.060786,-0.21709 -0.1839935,-0.52654 -0.4040369,-0.93923 -0.1624007,-0.30457 -0.3521307,-0.61777 -0.5438281,-0.91103 -0.4944599,-0.75642 -0.6932885,-0.95811 -0.6932885,-0.95811 0,0 0.1530245,0.23667 0.5796472,1.02584 0.1665684,0.30812 0.3279019,0.62615 0.4667796,0.93673 0.1902804,0.42553 0.2820439,0.71036 0.3399425,0.91714 0,0 0.1273921,-0.0357 0.1273921,-0.0357 z"
         style="fill:#000000;fill-rule:nonzero;stroke:none;stroke-width:0.26458332px;stroke-linecap:butt;stroke-linejoin:miter;stroke-opacity:1" />
      <path
         transform="matrix(1,0,0,1.1243635,0,-25.488391)"
         inkscape:original-d="M 9.4036694,204.88991 C 8.7614677,203.65138 8.5779813,202 8.5779813,202"
         inkscape:path-effect="#path-effect1616"
         inkscape:connector-curvature="0"
         id="path1614"
         d="m 9.4036694,204.88991 c 0,0 0.1174425,-0.0609 0.1174425,-0.0609 -0.248172,-0.47861 -0.4814518,-1.0377 -0.7065414,-1.86285 C 8.6105056,202.21808 8.5779813,202 8.5779813,202 c 0,0 -0.026502,0.22187 0.1074477,0.99486 0.1390663,0.80251 0.3617839,1.49499 0.6007979,1.95595 0,0 0.1174425,-0.0609 0.1174425,-0.0609 z"
         style="fill:#000000;fill-rule:nonzero;stroke:none;stroke-width:0.26458332px;stroke-linecap:butt;stroke-linejoin:miter;stroke-opacity:1" />
      <path
         inkscape:original-d="m 10.963302,204.66055 c -0.504587,-1.19266 -0.09174,-3.16514 -0.09174,-3.16514"
         inkscape:path-effect="#path-effect1620"
         inkscape:connector-curvature="0"
         id="path1618"
         d="m 10.963302,204.66055 c 0,0 0.121836,-0.0515 0.121836,-0.0515 -0.08791,-0.20777 -0.185699,-0.50424 -0.243311,-0.95583 -0.04228,-0.33138 -0.05414,-0.67893 -0.0476,-1.01831 0.01675,-0.86884 0.07733,-1.13945 0.07733,-1.13945 h 0 c 0,0 -0.117058,0.25445 -0.209367,1.1312 -0.03588,0.3408 -0.05154,0.70036 -0.03183,1.0459 0.02679,0.46964 0.113047,0.80782 0.211103,1.03959 0,0 0.121836,-0.0515 0.121836,-0.0515 z"
         style="fill:#000000;fill-rule:nonzero;stroke:none;stroke-width:0.26458332px;stroke-linecap:butt;stroke-linejoin:miter;stroke-opacity:1" />
      <path
         inkscape:original-d="m 12.201834,204.56881 c -0.09174,-1.37615 0.504588,-2.79817 0.504588,-2.79817"
         inkscape:path-effect="#path-effect1624"
         inkscape:connector-curvature="0"
         id="path1622"
         d="m 12.201834,204.56881 c 0,0 0.131999,-0.009 0.131999,-0.009 -0.03483,-0.52252 -0.01143,-1.11083 0.149896,-1.88964 0.146804,-0.70869 0.222693,-0.89973 0.222693,-0.89973 0,0 -0.129596,0.16473 -0.3507,0.86633 -0.230825,0.73246 -0.320461,1.42201 -0.285887,1.94064 0,0 0.131999,-0.009 0.131999,-0.009 z"
         style="fill:#000000;fill-rule:nonzero;stroke:none;stroke-width:0.26458332px;stroke-linecap:butt;stroke-linejoin:miter;stroke-opacity:1" />
      <path
         inkscape:original-d="m 14.258145,204.87311 c -0.450806,-1.35935 1.20057,-2.73549 1.20057,-2.73549"
         inkscape:path-effect="#path-effect1628"
         inkscape:connector-curvature="0"
         id="path1626"
         d="m 14.258145,204.87311 c 0,0 0.125567,-0.0416 0.125567,-0.0416 -0.0751,-0.22646 -0.123693,-0.52962 -0.02607,-0.9301 0.07239,-0.29696 0.211627,-0.59083 0.386086,-0.86806 0.451969,-0.71822 0.714986,-0.89569 0.714986,-0.89569 0,0 -0.295505,0.12517 -0.823688,0.82029 -0.20301,0.26717 -0.378547,0.56746 -0.481569,0.88515 -0.141163,0.43531 -0.111684,0.79788 -0.02088,1.07169 0,0 0.125567,-0.0416 0.125567,-0.0416 z"
         style="fill:#000000;fill-rule:nonzero;stroke:none;stroke-width:0.26458332px;stroke-linecap:butt;stroke-linejoin:miter;stroke-opacity:1" />
    </g>
    <g
       id="g1696"
       transform="translate(0.91743119,2.0183486)">
      <g
         transform="matrix(1,0,0.10783138,1,-22.812455,0.84333834)"
         id="g1545">
        <circle
           r="6.1880498"
           cy="207.94708"
           cx="28.300022"
           id="circle832"
           style="fill:#ffffff;fill-opacity:1;stroke:#000000;stroke-width:0.61740911;stroke-miterlimit:4;stroke-dasharray:none;stroke-dashoffset:0;stroke-opacity:1" />
        <path
           inkscape:connector-curvature="0"
           id="path873"
           d="m 28.29968,201.75903 a 6.1880494,6.1880494 0 0 1 6.18839,6.18775 6.1880494,6.1880494 0 0 1 -0.301187,1.88115 8.5111047,8.5111047 0 0 0 -8.209925,-6.30707 8.5111047,8.5111047 0 0 0 -2.301024,0.32543 6.1880494,6.1880494 0 0 1 4.623746,-2.08726 z"
           style="opacity:1;vector-effect:none;fill:#ca9ddb;fill-opacity:1;stroke:#000000;stroke-width:0.58728963;stroke-linecap:butt;stroke-linejoin:miter;stroke-miterlimit:4;stroke-dasharray:none;stroke-dashoffset:0;stroke-opacity:1" />
        <path
           style="opacity:1;vector-effect:none;fill:#47226f;fill-opacity:0.16417913;stroke:#000000;stroke-width:0;stroke-linecap:butt;stroke-linejoin:miter;stroke-miterlimit:4;stroke-dasharray:none;stroke-dashoffset:0;stroke-opacity:1"
           d="m 129.0293,33.710938 c -2.21326,16.749526 -15.15158,25.799671 -27.45856,29.502195 2.06326,0.589735 3.85113,0.849365 5.997,0.857048 12.91662,-6.55e-4 22.78034,-9.778561 22.77992,-22.695181 -0.009,-2.610359 -0.45429,-5.200848 -1.31836,-7.664062 z"
           transform="matrix(0.26458333,0,0,0.26458333,0,197)"
           id="path1089"
           inkscape:connector-curvature="0"
           sodipodi:nodetypes="ccccc" />
      </g>
      <circle
         style="fill:#000000;fill-opacity:1;stroke:#000000;stroke-width:0.37745517;stroke-miterlimit:4;stroke-dasharray:none;stroke-dashoffset:0;stroke-opacity:1"
         id="circle873"
         cx="27.601187"
         cy="210.53307"
         r="2.0176454" />
      <path
         transform="matrix(-1,0,0,1,37.102651,-0.18348166)"
         style="fill:#000000;fill-rule:nonzero;stroke:none;stroke-width:0.26458332px;stroke-linecap:butt;stroke-linejoin:miter;stroke-opacity:1"
         d="m 3.2693697,210.85475 c 0,0 0.078801,-0.10626 0.078801,-0.10626 -0.1820178,-0.13498 -0.4625994,-0.28213 -0.8757568,-0.40716 -0.3040528,-0.092 -0.6303455,-0.15713 -0.9449893,-0.20089 -0.81090111,-0.11277 -1.06870922,-0.067 -1.06870922,-0.067 0,0 0.2590266,0.0127 1.04450472,0.1971 0.306445,0.0719 0.6147275,0.1609 0.9001554,0.27164 0.3891401,0.15097 0.6263884,0.29962 0.7871928,0.41887 0,0 0.078801,-0.10626 0.078801,-0.10626 z"
         id="path1630"
         inkscape:connector-curvature="0"
         inkscape:path-effect="#path-effect1632"
         inkscape:original-d="M 3.2693697,210.85475 C 2.3394495,210.16514 0.45871558,210.0734 0.45871558,210.0734" />
      <path
         transform="matrix(-1,0,0,1,37.102651,-0.18348166)"
         style="fill:#000000;fill-rule:nonzero;stroke:none;stroke-width:0.26458332px;stroke-linecap:butt;stroke-linejoin:miter;stroke-opacity:1"
         d="m 3.9449541,209.66055 c 0,0 0.1187874,-0.0582 0.1187874,-0.0582 -0.2153718,-0.43936 -0.5416094,-0.93757 -1.0112646,-1.34404 -0.3459075,-0.29937 -0.7067262,-0.4948 -1.0499924,-0.61453 -0.8563557,-0.29871 -1.13092489,-0.13916 -1.13092489,-0.13916 0,0 0.28921619,-0.0898 1.08237769,0.26222 0.3186599,0.1414 0.645107,0.34927 0.9554549,0.64837 0.4231321,0.40779 0.7098494,0.88147 0.9167745,1.3036 0,0 0.1187874,-0.0582 0.1187874,-0.0582 z"
         id="path1634"
         inkscape:connector-curvature="0"
         inkscape:path-effect="#path-effect1636"
         inkscape:original-d="M 3.9449541,209.66055 C 2.798165,207.3211 0.87155961,207.50459 0.87155961,207.50459" />
      <path
         transform="matrix(-1,0,0,1,37.102651,-0.18348166)"
         style="fill:#000000;fill-rule:nonzero;stroke:none;stroke-width:0.26458332px;stroke-linecap:butt;stroke-linejoin:miter;stroke-opacity:1"
         d="m 4.678899,208.33028 c 0,0 0.1245846,-0.0445 0.1245846,-0.0445 -0.3419624,-0.9575 -0.862331,-1.97268 -1.4927075,-2.79203 -0.5825659,-0.7572 -0.7878404,-0.83321 -0.7878404,-0.83321 0,0 0.1654566,0.12533 0.6800494,0.90991 0.5821078,0.88752 1.0014122,1.82455 1.3513293,2.80431 0,0 0.1245846,-0.0445 0.1245846,-0.0445 z"
         id="path1638"
         inkscape:connector-curvature="0"
         inkscape:path-effect="#path-effect1640"
         inkscape:original-d="M 4.678899,208.33028 C 3.7614677,205.76147 2.5229357,204.66055 2.5229357,204.66055" />
      <path
         style="fill:#000000;fill-rule:nonzero;stroke:none;stroke-width:0.26458332px;stroke-linecap:butt;stroke-linejoin:miter;stroke-opacity:1"
         d="m 5.9633027,206.86239 c 0,0 0.1306038,-0.0211 0.1306038,-0.0211 -0.087493,-0.54245 -0.3694679,-1.22828 -0.8480769,-1.94549 -0.4590705,-0.68792 -0.6586738,-0.83161 -0.6586738,-0.83161 0,0 0.1564782,0.18481 0.5454545,0.90004 0.4217146,0.77543 0.6144581,1.38829 0.7000886,1.9192 0,0 0.1306038,-0.0211 0.1306038,-0.0211 z"
         id="path1642"
         inkscape:connector-curvature="0"
         inkscape:path-effect="#path-effect1644"
         inkscape:original-d="M 5.9633027,206.86239 C 5.7339446,205.44037 4.5871558,204.06422 4.5871558,204.06422"
         transform="matrix(-1.2435522,0,0,1.1138965,38.586836,-23.746775)" />
      <path
         style="fill:#000000;fill-rule:nonzero;stroke:none;stroke-width:0.26458332px;stroke-linecap:butt;stroke-linejoin:miter;stroke-opacity:1"
         d="m 7.7064218,205.66973 c 0,0 0.1273921,-0.0357 0.1273921,-0.0357 -0.060786,-0.21709 -0.1839935,-0.52654 -0.4040369,-0.93923 -0.1624007,-0.30457 -0.3521307,-0.61777 -0.5438281,-0.91103 -0.4944599,-0.75642 -0.6932885,-0.95811 -0.6932885,-0.95811 0,0 0.1530245,0.23667 0.5796472,1.02584 0.1665684,0.30812 0.3279019,0.62615 0.4667796,0.93673 0.1902804,0.42553 0.2820439,0.71036 0.3399425,0.91714 0,0 0.1273921,-0.0357 0.1273921,-0.0357 z"
         id="path1646"
         inkscape:connector-curvature="0"
         inkscape:path-effect="#path-effect1648"
         inkscape:original-d="m 7.7064218,205.66973 c -0.321101,-1.14679 -1.5137614,-2.84404 -1.5137614,-2.84404"
         transform="matrix(-1.2236064,0,0,1.1911508,38.854342,-39.504224)" />
      <path
         style="fill:#000000;fill-rule:nonzero;stroke:none;stroke-width:0.26458332px;stroke-linecap:butt;stroke-linejoin:miter;stroke-opacity:1"
         d="m 9.4036694,204.88991 c 0,0 0.1174425,-0.0609 0.1174425,-0.0609 -0.248172,-0.47861 -0.4814518,-1.0377 -0.7065414,-1.86285 C 8.6105056,202.21808 8.5779813,202 8.5779813,202 c 0,0 -0.026502,0.22187 0.1074477,0.99486 0.1390663,0.80251 0.3617839,1.49499 0.6007979,1.95595 0,0 0.1174425,-0.0609 0.1174425,-0.0609 z"
         id="path1650"
         inkscape:connector-curvature="0"
         inkscape:path-effect="#path-effect1652"
         inkscape:original-d="M 9.4036694,204.88991 C 8.7614677,203.65138 8.5779813,202 8.5779813,202"
         transform="matrix(-1,0,0,1.1243635,37.102651,-25.671872)" />
      <path
         transform="matrix(-1,0,0,1,37.102651,-0.18348166)"
         style="fill:#000000;fill-rule:nonzero;stroke:none;stroke-width:0.26458332px;stroke-linecap:butt;stroke-linejoin:miter;stroke-opacity:1"
         d="m 10.963302,204.66055 c 0,0 0.121836,-0.0515 0.121836,-0.0515 -0.08791,-0.20777 -0.185699,-0.50424 -0.243311,-0.95583 -0.04228,-0.33138 -0.05414,-0.67893 -0.0476,-1.01831 0.01675,-0.86884 0.07733,-1.13945 0.07733,-1.13945 h 0 c 0,0 -0.117058,0.25445 -0.209367,1.1312 -0.03588,0.3408 -0.05154,0.70036 -0.03183,1.0459 0.02679,0.46964 0.113047,0.80782 0.211103,1.03959 0,0 0.121836,-0.0515 0.121836,-0.0515 z"
         id="path1654"
         inkscape:connector-curvature="0"
         inkscape:path-effect="#path-effect1656"
         inkscape:original-d="m 10.963302,204.66055 c -0.504587,-1.19266 -0.09174,-3.16514 -0.09174,-3.16514" />
      <path
         transform="matrix(-1,0,0,1,37.102651,-0.18348166)"
         style="fill:#000000;fill-rule:nonzero;stroke:none;stroke-width:0.26458332px;stroke-linecap:butt;stroke-linejoin:miter;stroke-opacity:1"
         d="m 12.201834,204.56881 c 0,0 0.131999,-0.009 0.131999,-0.009 -0.03483,-0.52252 -0.01143,-1.11083 0.149896,-1.88964 0.146804,-0.70869 0.222693,-0.89973 0.222693,-0.89973 0,0 -0.129596,0.16473 -0.3507,0.86633 -0.230825,0.73246 -0.320461,1.42201 -0.285887,1.94064 0,0 0.131999,-0.009 0.131999,-0.009 z"
         id="path1658"
         inkscape:connector-curvature="0"
         inkscape:path-effect="#path-effect1660"
         inkscape:original-d="m 12.201834,204.56881 c -0.09174,-1.37615 0.504588,-2.79817 0.504588,-2.79817" />
      <path
         transform="matrix(-1,0,0,1,37.102651,-0.18348166)"
         style="fill:#000000;fill-rule:nonzero;stroke:none;stroke-width:0.26458332px;stroke-linecap:butt;stroke-linejoin:miter;stroke-opacity:1"
         d="m 14.258145,204.87311 c 0,0 0.125567,-0.0416 0.125567,-0.0416 -0.0751,-0.22646 -0.123693,-0.52962 -0.02607,-0.9301 0.07239,-0.29696 0.211627,-0.59083 0.386086,-0.86806 0.451969,-0.71822 0.714986,-0.89569 0.714986,-0.89569 0,0 -0.295505,0.12517 -0.823688,0.82029 -0.20301,0.26717 -0.378547,0.56746 -0.481569,0.88515 -0.141163,0.43531 -0.111684,0.79788 -0.02088,1.07169 0,0 0.125567,-0.0416 0.125567,-0.0416 z"
         id="path1662"
         inkscape:connector-curvature="0"
         inkscape:path-effect="#path-effect1664"
         inkscape:original-d="m 14.258145,204.87311 c -0.450806,-1.35935 1.20057,-2.73549 1.20057,-2.73549" />
    </g>
    <circle
       style="opacity:1;vector-effect:none;fill:#ffffff;fill-opacity:0.98564597;stroke:#000000;stroke-width:0.5;stroke-linecap:butt;stroke-linejoin:miter;stroke-miterlimit:4;stroke-dasharray:none;stroke-dashoffset:0;stroke-opacity:1"
       id="path1749-3"
       cx="18.982954"
       cy="250.86432"
       r="1.0550458" />
    <circle
       style="opacity:1;vector-effect:none;fill:#ffffff;fill-opacity:0.98564597;stroke:#000000;stroke-width:0.5;stroke-linecap:butt;stroke-linejoin:miter;stroke-miterlimit:4;stroke-dasharray:none;stroke-dashoffset:0;stroke-opacity:1"
       id="path1749-5"
       cx="20.156614"
       cy="252.019"
       r="1.0550458" />
    <circle
       style="opacity:1;vector-effect:none;fill:#ffffff;fill-opacity:0.98564597;stroke:#000000;stroke-width:0.5;stroke-linecap:butt;stroke-linejoin:miter;stroke-miterlimit:4;stroke-dasharray:none;stroke-dashoffset:0;stroke-opacity:1"
       id="path1749-5-2"
       cx="22.007217"
       cy="252.17561"
       r="1.0550458" />
    <circle
       style="opacity:1;vector-effect:none;fill:#ffffff;fill-opacity:0.98564597;stroke:#000000;stroke-width:0.5;stroke-linecap:butt;stroke-linejoin:miter;stroke-miterlimit:4;stroke-dasharray:none;stroke-dashoffset:0;stroke-opacity:1"
       id="path1749-5-9"
       cx="24.090439"
       cy="251.88464"
       r="1.0550458" />
    <circle
       style="opacity:1;vector-effect:none;fill:#ffffff;fill-opacity:0.98564597;stroke:#000000;stroke-width:0.5;stroke-linecap:butt;stroke-linejoin:miter;stroke-miterlimit:4;stroke-dasharray:none;stroke-dashoffset:0;stroke-opacity:1"
       id="path1749-5-27"
       cx="26.093046"
       cy="251.10809"
       r="1.0550458" />
    <circle
       style="opacity:1;vector-effect:none;fill:#ffffff;fill-opacity:0.98564597;stroke:#000000;stroke-width:0.5;stroke-linecap:butt;stroke-linejoin:miter;stroke-miterlimit:4;stroke-dasharray:none;stroke-dashoffset:0;stroke-opacity:1"
       id="path1749-5-0"
       cx="27.782423"
       cy="249.61334"
       r="1.0550458" />
    <path
       style="opacity:1;vector-effect:none;fill:#610f53;fill-opacity:0.19617226;stroke:none;stroke-width:0.26458332px;stroke-linecap:butt;stroke-linejoin:miter;stroke-miterlimit:4;stroke-dasharray:none;stroke-dashoffset:0;stroke-opacity:1"
       d="m 31.478896,231.30273 c -3.389215,7.00389 -5.554357,10.78741 -12.729479,14.25913 9.642009,-1.74751 11.942706,-10.87405 12.729479,-14.25913 z"
       id="path1842"
       inkscape:connector-curvature="0"
       sodipodi:nodetypes="ccc" />
    <path
       style="opacity:1;vector-effect:none;fill:#610f53;fill-opacity:0.56459333;stroke:none;stroke-width:0.99999994px;stroke-linecap:butt;stroke-linejoin:miter;stroke-miterlimit:4;stroke-dasharray:none;stroke-dashoffset:0;stroke-opacity:1"
       d="m 362.64149,234.02621 c -2.0973,4.96787 -7.55246,7.38225 -15.20204,12.16324 -22.19692,13.8731 -46.58423,10.89702 -107.49218,49.93164 -62.43296,40.01201 -128.98798,38.14118 -151.179692,35.36719 -11.328859,-1.4161 -24.420603,-5.3528 -34.566406,-8.87695 0.260938,0.47123 0.532793,0.94413 0.828125,1.41797 15.180555,24.35618 107.899203,16.78254 138.542973,3.80273 30.64376,-12.97984 91.09417,-53.52868 128.26757,-63.93164 30.55111,-8.54971 41.87649,-26.34125 40.80165,-29.87418 z"
       transform="matrix(0.26458333,0,0,0.26458333,0,197)"
       id="path5177"
       inkscape:connector-curvature="0"
       sodipodi:nodetypes="cssccsssc" />
    <path
       style="opacity:1;vector-effect:none;fill:#610f53;fill-opacity:0.2885572;stroke:none;stroke-width:0.26458332px;stroke-linecap:butt;stroke-linejoin:miter;stroke-miterlimit:4;stroke-dasharray:none;stroke-dashoffset:0;stroke-opacity:1"
       d="m 36.06466,253.31145 c 1.834862,1.65138 5.977067,4.4468 11.360393,4.49923 8.361934,0.0814 15.398104,2.17688 15.386631,3.14074 -0.01147,0.96386 -9.714009,2.5461 -12.983774,1.34001 -3.269764,-1.20604 -11.087413,-3.45139 -14.071535,-2.28369 0.86234,-2.21971 1.122505,-4.18487 0.308285,-6.69634 z"
       id="path5196"
       inkscape:connector-curvature="0"
       sodipodi:nodetypes="cszzccc" />
    <path
       style="opacity:1;vector-effect:none;fill:#610f53;fill-opacity:0.56459333;stroke:none;stroke-width:0.99999994px;stroke-linecap:butt;stroke-linejoin:miter;stroke-miterlimit:4;stroke-dasharray:none;stroke-dashoffset:0;stroke-opacity:1"
       d="m 298.2888,243.15494 c 0,0 -0.16205,9.33241 -11.2618,14.97045 -11.09975,5.63804 -24.92225,11.20961 -53.11866,11.4549 -28.19642,0.24518 -83.85445,-16.91794 -91.45522,-17.89865 -5.49977,-0.70965 -15.39549,-0.69745 -17.50641,-4.33567 -2.71481,1.24282 -1.86785,-0.18815 -0.81857,2.39472 2.21626,5.45556 6.80117,2.92083 21.77089,8.31191 17.23192,6.20572 63.59829,19.60153 85.19518,18.00676 21.59688,-1.59473 50.09333,-4.68851 62.66378,-14.51158 7.30583,-5.70907 8.69372,-9.77456 7.13445,-14.08671 z"
       transform="matrix(0.26458333,0,0,0.26458333,0,197)"
       id="path5212"
       inkscape:connector-curvature="0"
       sodipodi:nodetypes="czccccccscc" />
    <path
       style="opacity:1;vector-effect:none;fill:#610f53;fill-opacity:0.56459333;stroke:none;stroke-width:0.26458332px;stroke-linecap:butt;stroke-linejoin:miter;stroke-miterlimit:4;stroke-dasharray:none;stroke-dashoffset:0;stroke-opacity:1"
       d="m 68.144121,242.10183 c 0,0 4.772208,8.77405 11.583787,9.87688 6.811579,1.10282 12.074516,0.38767 14.920602,-5.22222 0.743705,4.38007 -0.543797,6.13457 -4.274611,9.89656 -1.338567,1.34976 -8.318618,4.77496 -10.466407,5.4081 -2.205654,-3.27604 -3.141016,-3.96869 -5.290571,-6.44173 -2.149556,-2.47304 -6.206064,-7.53027 -6.64246,-10.94836 0.138629,-1.38183 0.16966,-2.56923 0.16966,-2.56923 z"
       id="path5231"
       inkscape:connector-curvature="0"
       sodipodi:nodetypes="cccsczcc" />
  </g>
</svg>
