<?xml version="1.0" encoding="UTF-8" standalone="no"?>
<!-- Created with Inkscape (http://www.inkscape.org/) -->

<svg
   xmlns:dc="http://purl.org/dc/elements/1.1/"
   xmlns:cc="http://creativecommons.org/ns#"
   xmlns:rdf="http://www.w3.org/1999/02/22-rdf-syntax-ns#"
   xmlns:svg="http://www.w3.org/2000/svg"
   xmlns="http://www.w3.org/2000/svg"
   xmlns:sodipodi="http://sodipodi.sourceforge.net/DTD/sodipodi-0.dtd"
   xmlns:inkscape="http://www.inkscape.org/namespaces/inkscape"
   width="100mm"
   height="100mm"
   viewBox="0 0 100 100"
   version="1.1"
   id="svg8"
   sodipodi:docname="gail1.svg"
   inkscape:version="0.92.4 (33fec40, 2019-01-16)"
   inkscape:export-filename="/home/jfakonas/dale1.png"
   inkscape:export-xdpi="95.900002"
   inkscape:export-ydpi="95.900002">
  <defs
     id="defs2">
    <inkscape:path-effect
       effect="powerstroke"
       id="path-effect1740"
       is_visible="true"
       offset_points="0,0.13229166"
       sort_points="true"
       interpolator_type="CubicBezierJohan"
       interpolator_beta="0.2"
       start_linecap_type="zerowidth"
       linejoin_type="extrp_arc"
       miter_limit="4"
       end_linecap_type="zerowidth" />
    <inkscape:path-effect
       effect="powerstroke"
       id="path-effect1736"
       is_visible="true"
       offset_points="0,0.13229166"
       sort_points="true"
       interpolator_type="CubicBezierJohan"
       interpolator_beta="0.2"
       start_linecap_type="zerowidth"
       linejoin_type="extrp_arc"
       miter_limit="4"
       end_linecap_type="zerowidth" />
    <inkscape:path-effect
       effect="powerstroke"
       id="path-effect1732"
       is_visible="true"
       offset_points="0,0.13229166"
       sort_points="true"
       interpolator_type="CubicBezierJohan"
       interpolator_beta="0.2"
       start_linecap_type="zerowidth"
       linejoin_type="extrp_arc"
       miter_limit="4"
       end_linecap_type="zerowidth" />
    <inkscape:path-effect
       effect="powerstroke"
       id="path-effect1728"
       is_visible="true"
       offset_points="0,0.13229166"
       sort_points="true"
       interpolator_type="CubicBezierJohan"
       interpolator_beta="0.2"
       start_linecap_type="zerowidth"
       linejoin_type="extrp_arc"
       miter_limit="4"
       end_linecap_type="zerowidth" />
    <inkscape:path-effect
       effect="powerstroke"
       id="path-effect1724"
       is_visible="true"
       offset_points="0,0.13229166"
       sort_points="true"
       interpolator_type="CubicBezierJohan"
       interpolator_beta="0.2"
       start_linecap_type="zerowidth"
       linejoin_type="extrp_arc"
       miter_limit="4"
       end_linecap_type="zerowidth" />
    <inkscape:path-effect
       end_linecap_type="zerowidth"
       miter_limit="4"
       linejoin_type="extrp_arc"
       start_linecap_type="zerowidth"
       interpolator_beta="0.2"
       interpolator_type="CubicBezierJohan"
       sort_points="true"
       offset_points="0,0.13229166"
       is_visible="true"
       id="path-effect1664"
       effect="powerstroke" />
    <inkscape:path-effect
       end_linecap_type="zerowidth"
       miter_limit="4"
       linejoin_type="extrp_arc"
       start_linecap_type="zerowidth"
       interpolator_beta="0.2"
       interpolator_type="CubicBezierJohan"
       sort_points="true"
       offset_points="0,0.13229166"
       is_visible="true"
       id="path-effect1660"
       effect="powerstroke" />
    <inkscape:path-effect
       end_linecap_type="zerowidth"
       miter_limit="4"
       linejoin_type="extrp_arc"
       start_linecap_type="zerowidth"
       interpolator_beta="0.2"
       interpolator_type="CubicBezierJohan"
       sort_points="true"
       offset_points="0,0.13229166"
       is_visible="true"
       id="path-effect1656"
       effect="powerstroke" />
    <inkscape:path-effect
       end_linecap_type="zerowidth"
       miter_limit="4"
       linejoin_type="extrp_arc"
       start_linecap_type="zerowidth"
       interpolator_beta="0.2"
       interpolator_type="CubicBezierJohan"
       sort_points="true"
       offset_points="0,0.13229166"
       is_visible="true"
       id="path-effect1652"
       effect="powerstroke" />
    <inkscape:path-effect
       end_linecap_type="zerowidth"
       miter_limit="4"
       linejoin_type="extrp_arc"
       start_linecap_type="zerowidth"
       interpolator_beta="0.2"
       interpolator_type="CubicBezierJohan"
       sort_points="true"
       offset_points="0,0.13229166"
       is_visible="true"
       id="path-effect1648"
       effect="powerstroke" />
    <inkscape:path-effect
       end_linecap_type="zerowidth"
       miter_limit="4"
       linejoin_type="extrp_arc"
       start_linecap_type="zerowidth"
       interpolator_beta="0.2"
       interpolator_type="CubicBezierJohan"
       sort_points="true"
       offset_points="0,0.13229166"
       is_visible="true"
       id="path-effect1644"
       effect="powerstroke" />
    <inkscape:path-effect
       end_linecap_type="zerowidth"
       miter_limit="4"
       linejoin_type="extrp_arc"
       start_linecap_type="zerowidth"
       interpolator_beta="0.2"
       interpolator_type="CubicBezierJohan"
       sort_points="true"
       offset_points="0,0.13229166"
       is_visible="true"
       id="path-effect1640"
       effect="powerstroke" />
    <inkscape:path-effect
       end_linecap_type="zerowidth"
       miter_limit="4"
       linejoin_type="extrp_arc"
       start_linecap_type="zerowidth"
       interpolator_beta="0.2"
       interpolator_type="CubicBezierJohan"
       sort_points="true"
       offset_points="0,0.13229166"
       is_visible="true"
       id="path-effect1636"
       effect="powerstroke" />
    <inkscape:path-effect
       end_linecap_type="zerowidth"
       miter_limit="4"
       linejoin_type="extrp_arc"
       start_linecap_type="zerowidth"
       interpolator_beta="0.2"
       interpolator_type="CubicBezierJohan"
       sort_points="true"
       offset_points="0,0.13229166"
       is_visible="true"
       id="path-effect1632"
       effect="powerstroke" />
    <inkscape:path-effect
       effect="powerstroke"
       id="path-effect1628"
       is_visible="true"
       offset_points="0,0.13229166"
       sort_points="true"
       interpolator_type="CubicBezierJohan"
       interpolator_beta="0.2"
       start_linecap_type="zerowidth"
       linejoin_type="extrp_arc"
       miter_limit="4"
       end_linecap_type="zerowidth" />
    <inkscape:path-effect
       effect="powerstroke"
       id="path-effect1624"
       is_visible="true"
       offset_points="0,0.13229166"
       sort_points="true"
       interpolator_type="CubicBezierJohan"
       interpolator_beta="0.2"
       start_linecap_type="zerowidth"
       linejoin_type="extrp_arc"
       miter_limit="4"
       end_linecap_type="zerowidth" />
    <inkscape:path-effect
       effect="powerstroke"
       id="path-effect1620"
       is_visible="true"
       offset_points="0,0.13229166"
       sort_points="true"
       interpolator_type="CubicBezierJohan"
       interpolator_beta="0.2"
       start_linecap_type="zerowidth"
       linejoin_type="extrp_arc"
       miter_limit="4"
       end_linecap_type="zerowidth" />
    <inkscape:path-effect
       effect="powerstroke"
       id="path-effect1616"
       is_visible="true"
       offset_points="0,0.13229166"
       sort_points="true"
       interpolator_type="CubicBezierJohan"
       interpolator_beta="0.2"
       start_linecap_type="zerowidth"
       linejoin_type="extrp_arc"
       miter_limit="4"
       end_linecap_type="zerowidth" />
    <inkscape:path-effect
       effect="powerstroke"
       id="path-effect1612"
       is_visible="true"
       offset_points="0,0.13229166"
       sort_points="true"
       interpolator_type="CubicBezierJohan"
       interpolator_beta="0.2"
       start_linecap_type="zerowidth"
       linejoin_type="extrp_arc"
       miter_limit="4"
       end_linecap_type="zerowidth" />
    <inkscape:path-effect
       effect="powerstroke"
       id="path-effect1608"
       is_visible="true"
       offset_points="0,0.13229166"
       sort_points="true"
       interpolator_type="CubicBezierJohan"
       interpolator_beta="0.2"
       start_linecap_type="zerowidth"
       linejoin_type="extrp_arc"
       miter_limit="4"
       end_linecap_type="zerowidth" />
    <inkscape:path-effect
       effect="powerstroke"
       id="path-effect1592"
       is_visible="true"
       offset_points="0,0.13229166"
       sort_points="true"
       interpolator_type="CubicBezierJohan"
       interpolator_beta="0.2"
       start_linecap_type="zerowidth"
       linejoin_type="extrp_arc"
       miter_limit="4"
       end_linecap_type="zerowidth" />
    <inkscape:path-effect
       effect="powerstroke"
       id="path-effect1588"
       is_visible="true"
       offset_points="0,0.13229166"
       sort_points="true"
       interpolator_type="CubicBezierJohan"
       interpolator_beta="0.2"
       start_linecap_type="zerowidth"
       linejoin_type="extrp_arc"
       miter_limit="4"
       end_linecap_type="zerowidth" />
    <inkscape:path-effect
       effect="powerstroke"
       id="path-effect1584"
       is_visible="true"
       offset_points="0,0.13229166"
       sort_points="true"
       interpolator_type="CubicBezierJohan"
       interpolator_beta="0.2"
       start_linecap_type="zerowidth"
       linejoin_type="extrp_arc"
       miter_limit="4"
       end_linecap_type="zerowidth" />
  </defs>
  <sodipodi:namedview
     id="base"
     pagecolor="#ffffff"
     bordercolor="#666666"
     borderopacity="1.0"
     inkscape:pageopacity="0.0"
     inkscape:pageshadow="2"
     inkscape:zoom="1.4419792"
     inkscape:cx="161.24503"
     inkscape:cy="183.06132"
     inkscape:document-units="mm"
     inkscape:current-layer="layer1"
     showgrid="false"
     inkscape:window-width="1311"
     inkscape:window-height="713"
     inkscape:window-x="55"
     inkscape:window-y="27"
     inkscape:window-maximized="1" />
  <metadata
     id="metadata5">
    <rdf:RDF>
      <cc:Work
         rdf:about="">
        <dc:format>image/svg+xml</dc:format>
        <dc:type
           rdf:resource="http://purl.org/dc/dcmitype/StillImage" />
        <dc:title />
      </cc:Work>
    </rdf:RDF>
  </metadata>
  <g
     inkscape:label="Layer 1"
     inkscape:groupmode="layer"
     id="layer1"
     transform="translate(0,-197)">
    <ellipse
       style="opacity:1;vector-effect:none;fill:#ffffff;fill-opacity:0.98564597;stroke:#000000;stroke-width:0.5;stroke-linecap:butt;stroke-linejoin:miter;stroke-miterlimit:4;stroke-dasharray:none;stroke-dashoffset:0;stroke-opacity:1"
       id="path1749-5-93"
       cx="27.340235"
       cy="249.11656"
       rx="1.0832605"
       ry="1.0832723" />
    <ellipse
       style="opacity:1;vector-effect:none;fill:#ffffff;fill-opacity:0.98564597;stroke:#000000;stroke-width:0.5;stroke-linecap:butt;stroke-linejoin:miter;stroke-miterlimit:4;stroke-dasharray:none;stroke-dashoffset:0;stroke-opacity:1"
       id="path1749"
       cx="18.589993"
       cy="250.49385"
       rx="1.0832605"
       ry="1.0832723" />
    <rect
       transform="matrix(-0.84097568,-0.54107292,-0.28698519,0.95793502,0,0)"
       y="167.60014"
       x="-92.85569"
       height="13.513568"
       width="3.1988823"
       id="rect879"
       style="opacity:1;vector-effect:none;fill:#ca9ddb;fill-opacity:1;stroke:#000000;stroke-width:0.51007664;stroke-linecap:butt;stroke-linejoin:miter;stroke-miterlimit:4;stroke-dasharray:none;stroke-dashoffset:0;stroke-opacity:1" />
    <rect
       style="opacity:1;vector-effect:none;fill:#ca9ddb;fill-opacity:1;stroke:#000000;stroke-width:0.5101524;stroke-linecap:butt;stroke-linejoin:miter;stroke-miterlimit:4;stroke-dasharray:none;stroke-dashoffset:0;stroke-opacity:1"
       id="rect877"
       width="3.2004488"
       height="13.532093"
       x="-55.234951"
       y="190.28847"
       transform="matrix(0.84062849,-0.54161216,0.28661431,0.95804605,0,0)" />
    <path
       style="fill:#ca9ddb;fill-opacity:1;stroke:#000000;stroke-width:0.59760052;stroke-linecap:butt;stroke-linejoin:miter;stroke-miterlimit:4;stroke-dasharray:none;stroke-opacity:1"
       d="m 73.363628,265.1774 c -12.29999,3.14116 -33.580832,5.14513 -38.379485,2.27801 -5.417129,-3.23667 -12.001314,-18.98446 -5.885298,-30.09987 l -14.872511,3.76369 c 6.101626,8.49276 7.911915,15.61779 5.995846,23.61759 -1.916069,7.99981 -10.3202027,13.64763 -6.196269,20.26427 4.123934,6.61665 29.311614,4.55924 37.636269,1.03313 8.324654,-3.52613 24.746768,-14.54157 34.845256,-17.36764 10.098486,-2.82609 14.784444,-10.43095 8.272858,-8.88022 -2.070489,0.49309 -6.827047,1.3041 -12.693537,2.99115"
       id="path925"
       inkscape:connector-curvature="0"
       sodipodi:nodetypes="cscczzzzsc" />
    <path
       style="fill:#610f53;fill-opacity:0.56459333;stroke:none;stroke-width:0.26458332px;stroke-linecap:butt;stroke-linejoin:miter;stroke-opacity:1"
       d="m 27.755511,239.81667 -12.365467,2.98624 c 1.191119,1.79177 2.552376,3.70206 3.354588,5.40327 0.950335,0.20796 1.446167,1.06503 3.153217,0.94279 1.70705,-0.12225 3.398577,-1.96786 4.51639,-3.12246 0.134142,-2.07235 0.614867,-4.2466 1.341272,-6.20984 z"
       id="path1744"
       inkscape:connector-curvature="0"
       sodipodi:nodetypes="ccczcc" />
    <path
       style="fill:#ca9ddb;fill-opacity:1;stroke:#000000;stroke-width:0.574;stroke-miterlimit:4;stroke-dasharray:none;stroke-dashoffset:0;stroke-opacity:1"
       d="m 31.428947,229.765 c 0.255016,8.206 -6.089544,17.07075 -13.101602,17.07075 -5.316518,0 -10.4601481,-9.4799 -9.5777211,-17.33244 0.5490507,-4.8859 4.2955771,-9.85563 11.6839201,-9.94161 5.723667,-0.0666 10.816772,4.45531 10.995403,10.2033 z"
       id="path875"
       inkscape:connector-curvature="0"
       sodipodi:nodetypes="sssss" />
    <ellipse
       style="opacity:1;vector-effect:none;fill:#a5008a;fill-opacity:1;stroke:none;stroke-width:0.59432888;stroke-linecap:butt;stroke-linejoin:miter;stroke-miterlimit:4;stroke-dasharray:none;stroke-dashoffset:0;stroke-opacity:1"
       id="path874"
       cx="-82.500229"
       cy="251.3425"
       rx="1.8089385"
       ry="9.5019255"
       transform="matrix(0.82646153,-0.5629932,0.56482766,0.82520889,0,0)" />
    <path
       style="fill:#a5008a;fill-opacity:1;stroke:#000000;stroke-width:0.63913447;stroke-linecap:butt;stroke-linejoin:miter;stroke-miterlimit:4;stroke-dasharray:none;stroke-opacity:1"
       d="m 81.220866,263.97646 c 9.28467,-3.34976 19.907074,-9.03898 13.066998,-23.82991 -6.840082,-14.79093 -34.246964,-19.82276 -47.519588,-11.47347 -6.447468,4.3854 -10.862206,9.88165 -12.046597,17.07176 -1.18439,7.19011 2.463407,9.04732 1.420205,13.74326 -1.249205,5.95337 -4.146736,3.8831 -3.544667,5.36515 0.602069,1.48207 1.947585,0.8935 6.014244,2.35806 4.681208,1.68585 17.410263,5.39162 23.277252,4.95839 5.866987,-0.43324 13.87458,-1.40698 17.289456,-4.07552 3.414878,-2.66855 1.590794,-4.61028 0.288739,-6.39328 -1.302055,-1.783 -10.054388,-9.91811 -10.891428,-15.76398 -0.837038,-5.84586 0.553516,-6.05748 0.44534,-4.87364 l -0.44534,4.87364"
       id="path927"
       inkscape:connector-curvature="0"
       sodipodi:nodetypes="czczczszzzzsc" />
    <g
       id="g1703"
       transform="matrix(1.0797106,0,0,1.0267576,-1.2653664,-6.0178226)"
       style="stroke-width:0.97394866">
      <path
         sodipodi:nodetypes="ccccc"
         inkscape:connector-curvature="0"
         id="path1490"
         d="m 12.328467,238.61691 c 2.225066,0.49535 6.16172,-0.90813 6.16172,-0.90813 0,0 5.679363,0.99069 6.22396,0.74302 0.544597,-0.24767 -3.469858,3.13719 -6.0528,3.24039 -2.582944,0.10321 -6.33288,-3.07528 -6.33288,-3.07528 z"
         style="opacity:1;vector-effect:none;fill:#573963;fill-opacity:1;stroke:none;stroke-width:0.61754084;stroke-linecap:butt;stroke-linejoin:miter;stroke-miterlimit:4;stroke-dasharray:none;stroke-dashoffset:0;stroke-opacity:1" />
      <path
         sodipodi:nodetypes="czzcccc"
         inkscape:connector-curvature="0"
         id="path1517"
         d="m 13.206744,238.45677 c 0,0 0.924168,0.84649 1.936441,0.93403 1.012274,0.0875 5.796698,0.11708 6.733537,-0.0291 0.936838,-0.14619 1.804412,-0.93404 1.804412,-0.93404 0,0 -3.890412,-0.6787 -5.190947,-0.7188 -1.300534,-0.0401 -5.283443,0.74799 -5.283443,0.74799 z"
         style="opacity:1;vector-effect:none;fill:#efd6fb;fill-opacity:1;stroke:#000000;stroke-width:0.26550788px;stroke-linecap:butt;stroke-linejoin:miter;stroke-miterlimit:4;stroke-dasharray:none;stroke-dashoffset:0;stroke-opacity:1" />
      <path
         sodipodi:nodetypes="ccczccccc"
         inkscape:connector-curvature="0"
         id="path1453"
         d="m 17.61857,235.84655 c -0.762217,-0.003 -2.039609,0.73526 -3.238007,1.7358 -1.597867,1.33404 -2.819758,0.33289 -2.819758,0.33289 0.483984,1.68609 6.190463,0.31491 6.95558,0.31475 0.765119,-1.6e-4 6.495561,1.37155 6.979608,-0.31475 0,0 -1.221891,1.00115 -2.819757,-0.33289 -1.597866,-1.33405 -3.336658,-2.20126 -3.806618,-1.46754 -0.315106,0.57916 -0.416258,0.35568 -0.682438,0 -0.11749,-0.18343 -0.314538,-0.26722 -0.56861,-0.26826 z"
         style="fill:#aa0000;stroke:#000000;stroke-width:0.31452489px;stroke-linecap:butt;stroke-linejoin:miter;stroke-opacity:1" />
      <path
         inkscape:connector-curvature="0"
         id="path1515"
         d="m 13.837778,240.17763 9.13366,-0.0359 c 0,0 -2.085026,1.63302 -4.621289,1.63302 -2.536265,0 -4.512371,-1.59714 -4.512371,-1.59714 z"
         style="fill:#efd6fb;fill-opacity:1;stroke:#000000;stroke-width:0.26550788px;stroke-linecap:butt;stroke-linejoin:miter;stroke-opacity:1" />
      <path
         sodipodi:nodetypes="ccccc"
         inkscape:connector-curvature="0"
         id="path1458"
         d="m 11.560805,237.91524 c 0,0 2.839082,3.08006 6.833747,2.87994 3.994664,-0.20009 7.101441,-2.87994 7.101441,-2.87994 -2.64669,2.73698 -4.031551,4.86552 -7.300829,4.95581 -2.720964,0.18466 -3.625465,-1.58378 -6.634359,-4.95581 z"
         style="fill:#aa0000;stroke:#000000;stroke-width:0.31452492px;stroke-linecap:butt;stroke-linejoin:miter;stroke-opacity:1" />
    </g>
    <g
       id="g1680"
       transform="matrix(1.0267426,0,0,1.0267538,0.01849816,-3.2232968)"
       style="stroke-width:0.97394866">
      <g
         transform="matrix(1,0,-0.07988257,1,17.047802,1.0268246)"
         id="g1540"
         style="stroke-width:0.97394866">
        <circle
           style="fill:#ffffff;fill-opacity:1;stroke:#000000;stroke-width:0.60132474;stroke-miterlimit:4;stroke-dasharray:none;stroke-dashoffset:0;stroke-opacity:1"
           id="path10"
           cx="8.8700228"
           cy="207.94708"
           r="6.1880498" />
        <path
           style="opacity:1;vector-effect:none;fill:#ca9ddb;fill-opacity:1;stroke:#000000;stroke-width:0.57198995;stroke-linecap:butt;stroke-linejoin:miter;stroke-miterlimit:4;stroke-dasharray:none;stroke-dashoffset:0;stroke-opacity:1"
           d="m 8.8703624,201.75903 a 6.1880494,6.1880494 0 0 0 -6.1883886,6.18775 6.1880494,6.1880494 0 0 0 0.3011882,1.88115 8.5111047,8.5111047 0 0 1 8.209922,-6.30707 8.5111047,8.5111047 0 0 1 2.301025,0.32543 6.1880494,6.1880494 0 0 0 -4.6237466,-2.08726 z"
           id="circle868"
           inkscape:connector-curvature="0" />
        <path
           id="path1111"
           d="m 14.677347,205.91935 c -0.585591,4.43165 -3.953006,6.85222 -7.2092274,7.83185 0.545905,0.15603 0.8349805,0.20376 1.4027437,0.20579 3.4175207,-1.7e-4 6.1554107,-2.59233 6.1552997,-6.00985 -0.0023,-0.69066 -0.120195,-1.37606 -0.348816,-2.02779 z"
           style="opacity:1;vector-effect:none;fill:#47226f;fill-opacity:0.16417913;stroke:#000000;stroke-width:0;stroke-linecap:butt;stroke-linejoin:miter;stroke-miterlimit:4;stroke-dasharray:none;stroke-dashoffset:0;stroke-opacity:1"
           inkscape:connector-curvature="0"
           sodipodi:nodetypes="ccccc" />
      </g>
      <circle
         r="2.0176454"
         cy="210.71655"
         cx="9.615202"
         id="path66"
         style="fill:#000000;fill-opacity:1;stroke:#000000;stroke-width:0.36762193;stroke-miterlimit:4;stroke-dasharray:none;stroke-dashoffset:0;stroke-opacity:1" />
      <path
         inkscape:original-d="M 3.2693697,210.85475 C 2.3394495,210.16514 0.45871558,210.0734 0.45871558,210.0734"
         inkscape:path-effect="#path-effect1584"
         inkscape:connector-curvature="0"
         id="path1582"
         d="m 3.2693697,210.85475 c 0,0 0.078801,-0.10626 0.078801,-0.10626 -0.1820178,-0.13498 -0.4625994,-0.28213 -0.8757568,-0.40716 -0.3040528,-0.092 -0.6303455,-0.15713 -0.9449893,-0.20089 -0.81090111,-0.11277 -1.06870922,-0.067 -1.06870922,-0.067 0,0 0.2590266,0.0127 1.04450472,0.1971 0.306445,0.0719 0.6147275,0.1609 0.9001554,0.27164 0.3891401,0.15097 0.6263884,0.29962 0.7871928,0.41887 0,0 0.078801,-0.10626 0.078801,-0.10626 z"
         style="fill:#000000;fill-rule:nonzero;stroke:none;stroke-width:0.25769058px;stroke-linecap:butt;stroke-linejoin:miter;stroke-opacity:1" />
      <path
         inkscape:original-d="M 3.9449541,209.66055 C 2.798165,207.3211 0.87155961,207.50459 0.87155961,207.50459"
         inkscape:path-effect="#path-effect1588"
         inkscape:connector-curvature="0"
         id="path1586"
         d="m 3.9449541,209.66055 c 0,0 0.1187874,-0.0582 0.1187874,-0.0582 -0.2153718,-0.43936 -0.5416094,-0.93757 -1.0112646,-1.34404 -0.3459075,-0.29937 -0.7067262,-0.4948 -1.0499924,-0.61453 -0.8563557,-0.29871 -1.13092489,-0.13916 -1.13092489,-0.13916 0,0 0.28921619,-0.0898 1.08237769,0.26222 0.3186599,0.1414 0.645107,0.34927 0.9554549,0.64837 0.4231321,0.40779 0.7098494,0.88147 0.9167745,1.3036 0,0 0.1187874,-0.0582 0.1187874,-0.0582 z"
         style="fill:#000000;fill-rule:nonzero;stroke:none;stroke-width:0.25769058px;stroke-linecap:butt;stroke-linejoin:miter;stroke-opacity:1" />
      <path
         inkscape:original-d="M 4.678899,208.33028 C 3.7614677,205.76147 2.5229357,204.66055 2.5229357,204.66055"
         inkscape:path-effect="#path-effect1592"
         inkscape:connector-curvature="0"
         id="path1590"
         d="m 4.678899,208.33028 c 0,0 0.1245846,-0.0445 0.1245846,-0.0445 -0.3419624,-0.9575 -0.862331,-1.97268 -1.4927075,-2.79203 -0.5825659,-0.7572 -0.7878404,-0.83321 -0.7878404,-0.83321 0,0 0.1654566,0.12533 0.6800494,0.90991 0.5821078,0.88752 1.0014122,1.82455 1.3513293,2.80431 0,0 0.1245846,-0.0445 0.1245846,-0.0445 z"
         style="fill:#000000;fill-rule:nonzero;stroke:none;stroke-width:0.25769058px;stroke-linecap:butt;stroke-linejoin:miter;stroke-opacity:1" />
      <path
         transform="matrix(1.2435522,0,0,1.1138965,-1.4841844,-23.563294)"
         inkscape:original-d="M 5.9633027,206.86239 C 5.7339446,205.44037 4.5871558,204.06422 4.5871558,204.06422"
         inkscape:path-effect="#path-effect1608"
         inkscape:connector-curvature="0"
         id="path1606"
         d="m 5.9633027,206.86239 c 0,0 0.1306038,-0.0211 0.1306038,-0.0211 -0.087493,-0.54245 -0.3694679,-1.22828 -0.8480769,-1.94549 -0.4590705,-0.68792 -0.6586738,-0.83161 -0.6586738,-0.83161 0,0 0.1564782,0.18481 0.5454545,0.90004 0.4217146,0.77543 0.6144581,1.38829 0.7000886,1.9192 0,0 0.1306038,-0.0211 0.1306038,-0.0211 z"
         style="fill:#000000;fill-rule:nonzero;stroke:none;stroke-width:0.25769058px;stroke-linecap:butt;stroke-linejoin:miter;stroke-opacity:1" />
      <path
         transform="matrix(1.2236064,0,0,1.1911508,-1.7516911,-39.320743)"
         inkscape:original-d="m 7.7064218,205.66973 c -0.321101,-1.14679 -1.5137614,-2.84404 -1.5137614,-2.84404"
         inkscape:path-effect="#path-effect1612"
         inkscape:connector-curvature="0"
         id="path1610"
         d="m 7.7064218,205.66973 c 0,0 0.1273921,-0.0357 0.1273921,-0.0357 -0.060786,-0.21709 -0.1839935,-0.52654 -0.4040369,-0.93923 -0.1624007,-0.30457 -0.3521307,-0.61777 -0.5438281,-0.91103 -0.4944599,-0.75642 -0.6932885,-0.95811 -0.6932885,-0.95811 0,0 0.1530245,0.23667 0.5796472,1.02584 0.1665684,0.30812 0.3279019,0.62615 0.4667796,0.93673 0.1902804,0.42553 0.2820439,0.71036 0.3399425,0.91714 0,0 0.1273921,-0.0357 0.1273921,-0.0357 z"
         style="fill:#000000;fill-rule:nonzero;stroke:none;stroke-width:0.25769058px;stroke-linecap:butt;stroke-linejoin:miter;stroke-opacity:1" />
      <path
         transform="matrix(1,0,0,1.1243635,0,-25.488391)"
         inkscape:original-d="M 9.4036694,204.88991 C 8.7614677,203.65138 8.5779813,202 8.5779813,202"
         inkscape:path-effect="#path-effect1616"
         inkscape:connector-curvature="0"
         id="path1614"
         d="m 9.4036694,204.88991 c 0,0 0.1174425,-0.0609 0.1174425,-0.0609 -0.248172,-0.47861 -0.4814518,-1.0377 -0.7065414,-1.86285 C 8.6105056,202.21808 8.5779813,202 8.5779813,202 c 0,0 -0.026502,0.22187 0.1074477,0.99486 0.1390663,0.80251 0.3617839,1.49499 0.6007979,1.95595 0,0 0.1174425,-0.0609 0.1174425,-0.0609 z"
         style="fill:#000000;fill-rule:nonzero;stroke:none;stroke-width:0.25769058px;stroke-linecap:butt;stroke-linejoin:miter;stroke-opacity:1" />
      <path
         inkscape:original-d="m 10.963302,204.66055 c -0.504587,-1.19266 -0.09174,-3.16514 -0.09174,-3.16514"
         inkscape:path-effect="#path-effect1620"
         inkscape:connector-curvature="0"
         id="path1618"
         d="m 10.963302,204.66055 c 0,0 0.121836,-0.0515 0.121836,-0.0515 -0.08791,-0.20777 -0.185699,-0.50424 -0.243311,-0.95583 -0.04228,-0.33138 -0.05414,-0.67893 -0.0476,-1.01831 0.01675,-0.86884 0.07733,-1.13945 0.07733,-1.13945 h 0 c 0,0 -0.117058,0.25445 -0.209367,1.1312 -0.03588,0.3408 -0.05154,0.70036 -0.03183,1.0459 0.02679,0.46964 0.113047,0.80782 0.211103,1.03959 0,0 0.121836,-0.0515 0.121836,-0.0515 z"
         style="fill:#000000;fill-rule:nonzero;stroke:none;stroke-width:0.25769058px;stroke-linecap:butt;stroke-linejoin:miter;stroke-opacity:1" />
      <path
         inkscape:original-d="m 12.201834,204.56881 c -0.09174,-1.37615 0.504588,-2.79817 0.504588,-2.79817"
         inkscape:path-effect="#path-effect1624"
         inkscape:connector-curvature="0"
         id="path1622"
         d="m 12.201834,204.56881 c 0,0 0.131999,-0.009 0.131999,-0.009 -0.03483,-0.52252 -0.01143,-1.11083 0.149896,-1.88964 0.146804,-0.70869 0.222693,-0.89973 0.222693,-0.89973 0,0 -0.129596,0.16473 -0.3507,0.86633 -0.230825,0.73246 -0.320461,1.42201 -0.285887,1.94064 0,0 0.131999,-0.009 0.131999,-0.009 z"
         style="fill:#000000;fill-rule:nonzero;stroke:none;stroke-width:0.25769058px;stroke-linecap:butt;stroke-linejoin:miter;stroke-opacity:1" />
      <path
         inkscape:original-d="m 14.258145,204.87311 c -0.450806,-1.35935 1.20057,-2.73549 1.20057,-2.73549"
         inkscape:path-effect="#path-effect1628"
         inkscape:connector-curvature="0"
         id="path1626"
         d="m 14.258145,204.87311 c 0,0 0.125567,-0.0416 0.125567,-0.0416 -0.0751,-0.22646 -0.123693,-0.52962 -0.02607,-0.9301 0.07239,-0.29696 0.211627,-0.59083 0.386086,-0.86806 0.451969,-0.71822 0.714986,-0.89569 0.714986,-0.89569 0,0 -0.295505,0.12517 -0.823688,0.82029 -0.20301,0.26717 -0.378547,0.56746 -0.481569,0.88515 -0.141163,0.43531 -0.111684,0.79788 -0.02088,1.07169 0,0 0.125567,-0.0416 0.125567,-0.0416 z"
         style="fill:#000000;fill-rule:nonzero;stroke:none;stroke-width:0.25769058px;stroke-linecap:butt;stroke-linejoin:miter;stroke-opacity:1" />
    </g>
    <g
       id="g1696"
       transform="matrix(1.0267426,0,0,1.0267538,0.01849816,-3.2232968)"
       style="stroke-width:0.97394866">
      <g
         transform="matrix(1,0,0.10783138,1,-22.812455,0.84333834)"
         id="g1545"
         style="stroke-width:0.97394866">
        <circle
           r="6.1880498"
           cy="207.94708"
           cx="28.300022"
           id="circle832"
           style="fill:#ffffff;fill-opacity:1;stroke:#000000;stroke-width:0.60132474;stroke-miterlimit:4;stroke-dasharray:none;stroke-dashoffset:0;stroke-opacity:1" />
        <path
           inkscape:connector-curvature="0"
           id="path873"
           d="m 28.29968,201.75903 a 6.1880494,6.1880494 0 0 1 6.18839,6.18775 6.1880494,6.1880494 0 0 1 -0.301187,1.88115 8.5111047,8.5111047 0 0 0 -8.209925,-6.30707 8.5111047,8.5111047 0 0 0 -2.301024,0.32543 6.1880494,6.1880494 0 0 1 4.623746,-2.08726 z"
           style="opacity:1;vector-effect:none;fill:#ca9ddb;fill-opacity:1;stroke:#000000;stroke-width:0.57198995;stroke-linecap:butt;stroke-linejoin:miter;stroke-miterlimit:4;stroke-dasharray:none;stroke-dashoffset:0;stroke-opacity:1" />
        <path
           style="opacity:1;vector-effect:none;fill:#47226f;fill-opacity:0.16417913;stroke:#000000;stroke-width:0;stroke-linecap:butt;stroke-linejoin:miter;stroke-miterlimit:4;stroke-dasharray:none;stroke-dashoffset:0;stroke-opacity:1"
           d="m 129.0293,33.710938 c -2.21326,16.749526 -15.15158,25.799671 -27.45856,29.502195 2.06326,0.589735 3.85113,0.849365 5.997,0.857048 12.91662,-6.55e-4 22.78034,-9.778561 22.77992,-22.695181 -0.009,-2.610359 -0.45429,-5.200848 -1.31836,-7.664062 z"
           transform="matrix(0.26458333,0,0,0.26458333,0,197)"
           id="path1089"
           inkscape:connector-curvature="0"
           sodipodi:nodetypes="ccccc" />
      </g>
      <circle
         style="fill:#000000;fill-opacity:1;stroke:#000000;stroke-width:0.36762193;stroke-miterlimit:4;stroke-dasharray:none;stroke-dashoffset:0;stroke-opacity:1"
         id="circle873"
         cx="27.601187"
         cy="210.53307"
         r="2.0176454" />
      <path
         transform="matrix(-1,0,0,1,37.102651,-0.18348166)"
         style="fill:#000000;fill-rule:nonzero;stroke:none;stroke-width:0.25769058px;stroke-linecap:butt;stroke-linejoin:miter;stroke-opacity:1"
         d="m 3.2693697,210.85475 c 0,0 0.078801,-0.10626 0.078801,-0.10626 -0.1820178,-0.13498 -0.4625994,-0.28213 -0.8757568,-0.40716 -0.3040528,-0.092 -0.6303455,-0.15713 -0.9449893,-0.20089 -0.81090111,-0.11277 -1.06870922,-0.067 -1.06870922,-0.067 0,0 0.2590266,0.0127 1.04450472,0.1971 0.306445,0.0719 0.6147275,0.1609 0.9001554,0.27164 0.3891401,0.15097 0.6263884,0.29962 0.7871928,0.41887 0,0 0.078801,-0.10626 0.078801,-0.10626 z"
         id="path1630"
         inkscape:connector-curvature="0"
         inkscape:path-effect="#path-effect1632"
         inkscape:original-d="M 3.2693697,210.85475 C 2.3394495,210.16514 0.45871558,210.0734 0.45871558,210.0734" />
      <path
         transform="matrix(-1,0,0,1,37.102651,-0.18348166)"
         style="fill:#000000;fill-rule:nonzero;stroke:none;stroke-width:0.25769058px;stroke-linecap:butt;stroke-linejoin:miter;stroke-opacity:1"
         d="m 3.9449541,209.66055 c 0,0 0.1187874,-0.0582 0.1187874,-0.0582 -0.2153718,-0.43936 -0.5416094,-0.93757 -1.0112646,-1.34404 -0.3459075,-0.29937 -0.7067262,-0.4948 -1.0499924,-0.61453 -0.8563557,-0.29871 -1.13092489,-0.13916 -1.13092489,-0.13916 0,0 0.28921619,-0.0898 1.08237769,0.26222 0.3186599,0.1414 0.645107,0.34927 0.9554549,0.64837 0.4231321,0.40779 0.7098494,0.88147 0.9167745,1.3036 0,0 0.1187874,-0.0582 0.1187874,-0.0582 z"
         id="path1634"
         inkscape:connector-curvature="0"
         inkscape:path-effect="#path-effect1636"
         inkscape:original-d="M 3.9449541,209.66055 C 2.798165,207.3211 0.87155961,207.50459 0.87155961,207.50459" />
      <path
         transform="matrix(-1,0,0,1,37.102651,-0.18348166)"
         style="fill:#000000;fill-rule:nonzero;stroke:none;stroke-width:0.25769058px;stroke-linecap:butt;stroke-linejoin:miter;stroke-opacity:1"
         d="m 4.678899,208.33028 c 0,0 0.1245846,-0.0445 0.1245846,-0.0445 -0.3419624,-0.9575 -0.862331,-1.97268 -1.4927075,-2.79203 -0.5825659,-0.7572 -0.7878404,-0.83321 -0.7878404,-0.83321 0,0 0.1654566,0.12533 0.6800494,0.90991 0.5821078,0.88752 1.0014122,1.82455 1.3513293,2.80431 0,0 0.1245846,-0.0445 0.1245846,-0.0445 z"
         id="path1638"
         inkscape:connector-curvature="0"
         inkscape:path-effect="#path-effect1640"
         inkscape:original-d="M 4.678899,208.33028 C 3.7614677,205.76147 2.5229357,204.66055 2.5229357,204.66055" />
      <path
         style="fill:#000000;fill-rule:nonzero;stroke:none;stroke-width:0.25769058px;stroke-linecap:butt;stroke-linejoin:miter;stroke-opacity:1"
         d="m 5.9633027,206.86239 c 0,0 0.1306038,-0.0211 0.1306038,-0.0211 -0.087493,-0.54245 -0.3694679,-1.22828 -0.8480769,-1.94549 -0.4590705,-0.68792 -0.6586738,-0.83161 -0.6586738,-0.83161 0,0 0.1564782,0.18481 0.5454545,0.90004 0.4217146,0.77543 0.6144581,1.38829 0.7000886,1.9192 0,0 0.1306038,-0.0211 0.1306038,-0.0211 z"
         id="path1642"
         inkscape:connector-curvature="0"
         inkscape:path-effect="#path-effect1644"
         inkscape:original-d="M 5.9633027,206.86239 C 5.7339446,205.44037 4.5871558,204.06422 4.5871558,204.06422"
         transform="matrix(-1.2435522,0,0,1.1138965,38.586836,-23.746775)" />
      <path
         style="fill:#000000;fill-rule:nonzero;stroke:none;stroke-width:0.25769058px;stroke-linecap:butt;stroke-linejoin:miter;stroke-opacity:1"
         d="m 7.7064218,205.66973 c 0,0 0.1273921,-0.0357 0.1273921,-0.0357 -0.060786,-0.21709 -0.1839935,-0.52654 -0.4040369,-0.93923 -0.1624007,-0.30457 -0.3521307,-0.61777 -0.5438281,-0.91103 -0.4944599,-0.75642 -0.6932885,-0.95811 -0.6932885,-0.95811 0,0 0.1530245,0.23667 0.5796472,1.02584 0.1665684,0.30812 0.3279019,0.62615 0.4667796,0.93673 0.1902804,0.42553 0.2820439,0.71036 0.3399425,0.91714 0,0 0.1273921,-0.0357 0.1273921,-0.0357 z"
         id="path1646"
         inkscape:connector-curvature="0"
         inkscape:path-effect="#path-effect1648"
         inkscape:original-d="m 7.7064218,205.66973 c -0.321101,-1.14679 -1.5137614,-2.84404 -1.5137614,-2.84404"
         transform="matrix(-1.2236064,0,0,1.1911508,38.854342,-39.504224)" />
      <path
         style="fill:#000000;fill-rule:nonzero;stroke:none;stroke-width:0.25769058px;stroke-linecap:butt;stroke-linejoin:miter;stroke-opacity:1"
         d="m 9.4036694,204.88991 c 0,0 0.1174425,-0.0609 0.1174425,-0.0609 -0.248172,-0.47861 -0.4814518,-1.0377 -0.7065414,-1.86285 C 8.6105056,202.21808 8.5779813,202 8.5779813,202 c 0,0 -0.026502,0.22187 0.1074477,0.99486 0.1390663,0.80251 0.3617839,1.49499 0.6007979,1.95595 0,0 0.1174425,-0.0609 0.1174425,-0.0609 z"
         id="path1650"
         inkscape:connector-curvature="0"
         inkscape:path-effect="#path-effect1652"
         inkscape:original-d="M 9.4036694,204.88991 C 8.7614677,203.65138 8.5779813,202 8.5779813,202"
         transform="matrix(-1,0,0,1.1243635,37.102651,-25.671872)" />
      <path
         transform="matrix(-1,0,0,1,37.102651,-0.18348166)"
         style="fill:#000000;fill-rule:nonzero;stroke:none;stroke-width:0.25769058px;stroke-linecap:butt;stroke-linejoin:miter;stroke-opacity:1"
         d="m 10.963302,204.66055 c 0,0 0.121836,-0.0515 0.121836,-0.0515 -0.08791,-0.20777 -0.185699,-0.50424 -0.243311,-0.95583 -0.04228,-0.33138 -0.05414,-0.67893 -0.0476,-1.01831 0.01675,-0.86884 0.07733,-1.13945 0.07733,-1.13945 h 0 c 0,0 -0.117058,0.25445 -0.209367,1.1312 -0.03588,0.3408 -0.05154,0.70036 -0.03183,1.0459 0.02679,0.46964 0.113047,0.80782 0.211103,1.03959 0,0 0.121836,-0.0515 0.121836,-0.0515 z"
         id="path1654"
         inkscape:connector-curvature="0"
         inkscape:path-effect="#path-effect1656"
         inkscape:original-d="m 10.963302,204.66055 c -0.504587,-1.19266 -0.09174,-3.16514 -0.09174,-3.16514" />
      <path
         transform="matrix(-1,0,0,1,37.102651,-0.18348166)"
         style="fill:#000000;fill-rule:nonzero;stroke:none;stroke-width:0.25769058px;stroke-linecap:butt;stroke-linejoin:miter;stroke-opacity:1"
         d="m 12.201834,204.56881 c 0,0 0.131999,-0.009 0.131999,-0.009 -0.03483,-0.52252 -0.01143,-1.11083 0.149896,-1.88964 0.146804,-0.70869 0.222693,-0.89973 0.222693,-0.89973 0,0 -0.129596,0.16473 -0.3507,0.86633 -0.230825,0.73246 -0.320461,1.42201 -0.285887,1.94064 0,0 0.131999,-0.009 0.131999,-0.009 z"
         id="path1658"
         inkscape:connector-curvature="0"
         inkscape:path-effect="#path-effect1660"
         inkscape:original-d="m 12.201834,204.56881 c -0.09174,-1.37615 0.504588,-2.79817 0.504588,-2.79817" />
      <path
         transform="matrix(-1,0,0,1,37.102651,-0.18348166)"
         style="fill:#000000;fill-rule:nonzero;stroke:none;stroke-width:0.25769058px;stroke-linecap:butt;stroke-linejoin:miter;stroke-opacity:1"
         d="m 14.258145,204.87311 c 0,0 0.125567,-0.0416 0.125567,-0.0416 -0.0751,-0.22646 -0.123693,-0.52962 -0.02607,-0.9301 0.07239,-0.29696 0.211627,-0.59083 0.386086,-0.86806 0.451969,-0.71822 0.714986,-0.89569 0.714986,-0.89569 0,0 -0.295505,0.12517 -0.823688,0.82029 -0.20301,0.26717 -0.378547,0.56746 -0.481569,0.88515 -0.141163,0.43531 -0.111684,0.79788 -0.02088,1.07169 0,0 0.125567,-0.0416 0.125567,-0.0416 z"
         id="path1662"
         inkscape:connector-curvature="0"
         inkscape:path-effect="#path-effect1664"
         inkscape:original-d="m 14.258145,204.87311 c -0.450806,-1.35935 1.20057,-2.73549 1.20057,-2.73549" />
    </g>
    <ellipse
       style="opacity:1;vector-effect:none;fill:#ffffff;fill-opacity:0.98564597;stroke:#000000;stroke-width:0.5;stroke-linecap:butt;stroke-linejoin:miter;stroke-miterlimit:4;stroke-dasharray:none;stroke-dashoffset:0;stroke-opacity:1"
       id="path1749-3"
       cx="18.567139"
       cy="252.28023"
       rx="1.0832605"
       ry="1.0832723" />
    <ellipse
       style="opacity:1;vector-effect:none;fill:#ffffff;fill-opacity:0.98564597;stroke:#000000;stroke-width:0.5;stroke-linecap:butt;stroke-linejoin:miter;stroke-miterlimit:4;stroke-dasharray:none;stroke-dashoffset:0;stroke-opacity:1"
       id="path1749-5"
       cx="19.772186"
       cy="253.46579"
       rx="1.0832605"
       ry="1.0832723" />
    <ellipse
       style="opacity:1;vector-effect:none;fill:#ffffff;fill-opacity:0.98564597;stroke:#000000;stroke-width:0.5;stroke-linecap:butt;stroke-linejoin:miter;stroke-miterlimit:4;stroke-dasharray:none;stroke-dashoffset:0;stroke-opacity:1"
       id="path1749-5-2"
       cx="21.672279"
       cy="253.62662"
       rx="1.0832605"
       ry="1.0832723" />
    <ellipse
       style="opacity:1;vector-effect:none;fill:#ffffff;fill-opacity:0.98564597;stroke:#000000;stroke-width:0.5;stroke-linecap:butt;stroke-linejoin:miter;stroke-miterlimit:4;stroke-dasharray:none;stroke-dashoffset:0;stroke-opacity:1"
       id="path1749-5-9"
       cx="23.811213"
       cy="253.32785"
       rx="1.0832605"
       ry="1.0832723" />
    <ellipse
       style="opacity:1;vector-effect:none;fill:#ffffff;fill-opacity:0.98564597;stroke:#000000;stroke-width:0.5;stroke-linecap:butt;stroke-linejoin:miter;stroke-miterlimit:4;stroke-dasharray:none;stroke-dashoffset:0;stroke-opacity:1"
       id="path1749-5-27"
       cx="25.867373"
       cy="252.53052"
       rx="1.0832605"
       ry="1.0832723" />
    <ellipse
       style="opacity:1;vector-effect:none;fill:#ffffff;fill-opacity:0.98564597;stroke:#000000;stroke-width:0.5;stroke-linecap:butt;stroke-linejoin:miter;stroke-miterlimit:4;stroke-dasharray:none;stroke-dashoffset:0;stroke-opacity:1"
       id="path1749-5-0"
       cx="27.601931"
       cy="250.99577"
       rx="1.0832605"
       ry="1.0832723" />
    <path
       style="opacity:1;vector-effect:none;fill:#610f53;fill-opacity:0.19617226;stroke:none;stroke-width:0.26458332px;stroke-linecap:butt;stroke-linejoin:miter;stroke-miterlimit:4;stroke-dasharray:none;stroke-dashoffset:0;stroke-opacity:1"
       d="m 31.397254,232.19531 c -3.479851,7.19126 -5.702895,11.07601 -13.069898,14.64061 9.899861,-1.79426 12.262085,-11.16497 13.069898,-14.64061 z"
       id="path1842"
       inkscape:connector-curvature="0"
       sodipodi:nodetypes="ccc" />
    <path
       style="opacity:1;vector-effect:none;fill:#610f53;fill-opacity:0.56459333;stroke:none;stroke-width:0.26458332px;stroke-linecap:butt;stroke-linejoin:miter;stroke-miterlimit:4;stroke-dasharray:none;stroke-dashoffset:0;stroke-opacity:1"
       d="m 97.591349,260.55084 c -0.56975,1.34959 -2.051694,2.00548 -4.129771,3.3043 -6.029992,3.76879 -12.655025,2.9603 -29.201215,13.56452 -16.960475,10.86974 -35.040743,10.36151 -41.069321,9.60792 -3.077586,-0.3847 -6.634076,-1.45415 -9.390275,-2.41153 0.07088,0.12801 0.144738,0.25649 0.224968,0.38521 4.123934,6.61664 29.311787,4.55917 37.636442,1.03306 8.324653,-3.52613 24.74655,-14.54171 34.845038,-17.36779 8.299483,-2.32264 11.376123,-7.15592 11.084134,-8.11569 z"
       id="path5177"
       inkscape:connector-curvature="0"
       sodipodi:nodetypes="cssccsssc" />
    <path
       style="opacity:1;vector-effect:none;fill:#610f53;fill-opacity:0.28855722;stroke:none;stroke-width:0.26458332px;stroke-linecap:butt;stroke-linejoin:miter;stroke-miterlimit:4;stroke-dasharray:none;stroke-dashoffset:0;stroke-opacity:1"
       d="m 36.105653,254.79284 c 1.883932,1.69556 6.136909,4.56577 11.664199,4.61959 8.585554,0.0835 15.809889,2.23512 15.798108,3.22478 -0.01178,0.98964 -9.973785,2.61421 -13.330993,1.37586 -3.357205,-1.23831 -11.383918,-3.54373 -14.447843,-2.34479 0.885401,-2.27909 1.152524,-4.29683 0.316529,-6.87549 z"
       id="path5196"
       inkscape:connector-curvature="0"
       sodipodi:nodetypes="cszzccc" />
    <path
       style="opacity:1;vector-effect:none;fill:#610f53;fill-opacity:0.56459333;stroke:none;stroke-width:0.26458332px;stroke-linecap:butt;stroke-linejoin:miter;stroke-miterlimit:4;stroke-dasharray:none;stroke-dashoffset:0;stroke-opacity:1"
       d="m 80.109363,263.03077 c 0,0 -0.04402,2.53527 -3.05937,4.06691 -3.015346,1.53164 -6.770352,3.04522 -14.43016,3.11186 -7.659811,0.0666 -22.779814,-4.59597 -24.844631,-4.86239 -1.494062,-0.19278 -4.182324,-0.18946 -4.755774,-1.17783 -0.737502,0.33763 -0.507419,-0.0511 -0.222372,0.65055 0.602066,1.48208 1.847599,0.79348 5.914258,2.25803 4.681206,1.68586 17.277046,5.32499 23.144036,4.89175 5.866986,-0.43322 13.608302,-1.27368 17.023177,-3.94224 1.984695,-1.55094 2.361728,-2.65538 1.938138,-3.82683 z"
       id="path5212"
       inkscape:connector-curvature="0"
       sodipodi:nodetypes="czccccccscc" />
    <path
       style="opacity:1;vector-effect:none;fill:#610f53;fill-opacity:0.56459333;stroke:none;stroke-width:0.26458332px;stroke-linecap:butt;stroke-linejoin:miter;stroke-miterlimit:4;stroke-dasharray:none;stroke-dashoffset:0;stroke-opacity:1"
       d="m 69.043001,243.28332 c 0,0 4.899828,9.00878 11.893567,10.14112 6.993738,1.13232 12.397419,0.39805 15.319616,-5.36193 0.763594,4.49725 -0.558339,6.29869 -4.388924,10.16132 -1.374364,1.38588 -8.541079,4.90272 -10.746306,5.55279 -2.264638,-3.36368 -3.225014,-4.07486 -5.432054,-6.61406 -2.207041,-2.53921 -6.37203,-7.73174 -6.820097,-11.24127 0.142337,-1.41881 0.174198,-2.63797 0.174198,-2.63797 z"
       id="path5231"
       inkscape:connector-curvature="0"
       sodipodi:nodetypes="cccsczcc" />
  </g>
</svg>
