<?xml version="1.0" encoding="UTF-8" standalone="no"?>
<!-- Created with Inkscape (http://www.inkscape.org/) -->

<svg
   xmlns:dc="http://purl.org/dc/elements/1.1/"
   xmlns:cc="http://creativecommons.org/ns#"
   xmlns:rdf="http://www.w3.org/1999/02/22-rdf-syntax-ns#"
   xmlns:svg="http://www.w3.org/2000/svg"
   xmlns="http://www.w3.org/2000/svg"
   xmlns:sodipodi="http://sodipodi.sourceforge.net/DTD/sodipodi-0.dtd"
   xmlns:inkscape="http://www.inkscape.org/namespaces/inkscape"
   width="100mm"
   height="100mm"
   viewBox="0 0 100 100"
   version="1.1"
   id="svg8"
   sodipodi:docname="todd1.svg"
   inkscape:version="0.92.4 (33fec40, 2019-01-16)"
   inkscape:export-filename="/home/jfakonas/dale1.png"
   inkscape:export-xdpi="95.900002"
   inkscape:export-ydpi="95.900002">
  <defs
     id="defs2" />
  <sodipodi:namedview
     id="base"
     pagecolor="#ffffff"
     bordercolor="#666666"
     borderopacity="1.0"
     inkscape:pageopacity="0.0"
     inkscape:pageshadow="2"
     inkscape:zoom="1"
     inkscape:cx="-134.98948"
     inkscape:cy="195.7202"
     inkscape:document-units="mm"
     inkscape:current-layer="layer1"
     showgrid="false"
     inkscape:window-width="1311"
     inkscape:window-height="713"
     inkscape:window-x="55"
     inkscape:window-y="27"
     inkscape:window-maximized="1" />
  <metadata
     id="metadata5">
    <rdf:RDF>
      <cc:Work
         rdf:about="">
        <dc:format>image/svg+xml</dc:format>
        <dc:type
           rdf:resource="http://purl.org/dc/dcmitype/StillImage" />
        <dc:title />
      </cc:Work>
    </rdf:RDF>
  </metadata>
  <g
     inkscape:label="Layer 1"
     inkscape:groupmode="layer"
     id="layer1"
     transform="translate(0,-197)">
    <rect
       transform="matrix(-0.90009896,-0.43568552,-0.25932234,0.96579083,0,0)"
       y="180.24435"
       x="-83.967361"
       height="13.380964"
       width="3.0787144"
       id="rect879"
       style="opacity:1;vector-effect:none;fill:#b8e6e9;fill-opacity:1;stroke:#000000;stroke-width:0.60296351;stroke-linecap:butt;stroke-linejoin:miter;stroke-miterlimit:4;stroke-dasharray:none;stroke-dashoffset:0;stroke-opacity:1" />
    <rect
       style="opacity:1;vector-effect:none;fill:#b8e6e9;fill-opacity:1;stroke:#000000;stroke-width:0.60362947;stroke-linecap:butt;stroke-linejoin:miter;stroke-miterlimit:4;stroke-dasharray:none;stroke-dashoffset:0;stroke-opacity:1"
       id="rect877"
       width="3.0733294"
       height="13.353929"
       x="-56.096992"
       y="194.48053"
       transform="matrix(0.87203205,-0.48944877,0.30672158,0.95179928,0,0)" />
    <circle
       style="fill:#ffffff;fill-opacity:1;stroke:#000000;stroke-width:0.61740911;stroke-miterlimit:4;stroke-dasharray:none;stroke-dashoffset:0;stroke-opacity:1"
       id="path10"
       cx="11.594654"
       cy="207.94708"
       r="6.1880498" />
    <circle
       r="6.1880498"
       cy="207.94708"
       cx="28.300022"
       id="circle832"
       style="fill:#ffffff;fill-opacity:1;stroke:#000000;stroke-width:0.61740911;stroke-miterlimit:4;stroke-dasharray:none;stroke-dashoffset:0;stroke-opacity:1" />
    <circle
       style="fill:#000000;fill-opacity:1;stroke:#000000;stroke-width:0.37745517;stroke-miterlimit:4;stroke-dasharray:none;stroke-dashoffset:0;stroke-opacity:1"
       id="path66"
       cx="11.514145"
       cy="207.96425"
       r="2.0176454" />
    <circle
       r="2.0176454"
       cy="207.96425"
       cx="28.335133"
       id="circle873"
       style="fill:#000000;fill-opacity:1;stroke:#000000;stroke-width:0.37745517;stroke-miterlimit:4;stroke-dasharray:none;stroke-dashoffset:0;stroke-opacity:1" />
    <path
       style="opacity:1;vector-effect:none;fill:#b8e6e9;fill-opacity:1;stroke:#000000;stroke-width:0.59760052;stroke-linecap:butt;stroke-linejoin:miter;stroke-miterlimit:4;stroke-dasharray:none;stroke-dashoffset:0;stroke-opacity:1"
       d="m 15.366972,240.12012 c 0,0 -4.351634,-13.74541 -2.798165,-16.64998 1.553469,-2.90457 12.549057,-3.69003 14.587156,-0.48495 1.971437,3.10026 -1.651377,16.64998 -1.651377,16.64998 z"
       id="path5869"
       inkscape:connector-curvature="0"
       sodipodi:nodetypes="czscc" />
    <path
       style="fill:#b8e6e9;fill-opacity:1;stroke:#000000;stroke-width:0.59760052;stroke-linecap:butt;stroke-linejoin:miter;stroke-miterlimit:4;stroke-dasharray:none;stroke-opacity:1"
       d="m 71.434783,263.60891 c -11.979625,3.05932 -32.115427,3.60666 -37.379853,2.21866 -7.400945,-1.9513 -10.844488,-18.76107 -7.277811,-28.22387 0.756032,-2.00584 -2.010976,-2.61002 -6.520929,-1.48035 -4.375702,1.09605 -6.919504,0.24065 -6.405372,1.47973 2.833498,6.82888 5.473862,24.56668 2.972263,34.5291 -1.678981,6.55548 -4.168386,11.19002 2.313278,15.16912 6.481663,3.9791 17.115472,4.27325 23.370564,2.74282 6.088829,-1.48976 16.482412,-5.04987 21.975998,-7.90916 5.880821,-3.06084 12.7319,-9.66666 22.34821,-14.3493 12.52266,-6.09789 12.32346,-9.1212 5.462496,-9.42729 -2.070891,-0.0925 -13.591622,2.82108 -19.305314,4.46417"
       id="path925"
       inkscape:connector-curvature="0"
       sodipodi:nodetypes="cssssczssssc" />
    <path
       style="opacity:1;vector-effect:none;fill:#226a6f;fill-opacity:0.40796024;stroke:#000000;stroke-width:0;stroke-linecap:butt;stroke-linejoin:miter;stroke-miterlimit:4;stroke-dasharray:none;stroke-dashoffset:0;stroke-opacity:1"
       d="m 329.99609,235.11719 c -7.88729,2.00922 -17.36858,4.77131 -27.89648,7.79883 L 269.99023,251.75 c -44.6495,1.93277 -107.41949,17.51995 -136.74501,9.84677 21.06471,9.09009 42.96839,18.68822 58.91132,21.23868 16.22402,2.59542 34.60185,12.53096 62.69618,0.0137 34.30221,-15.28316 46.5845,-20.48594 48.04723,-28.94059 1.46274,-8.45464 4.84564,-10.01035 8.54239,-14.25163 z"
       id="path915"
       inkscape:connector-curvature="0"
       sodipodi:nodetypes="ccccsszcc"
       transform="matrix(0.26458333,0,0,0.26458333,0,197)" />
    <ellipse
       style="opacity:1;vector-effect:none;fill:#8d5420;fill-opacity:1;stroke:none;stroke-width:0.57431465;stroke-linecap:butt;stroke-linejoin:miter;stroke-miterlimit:4;stroke-dasharray:none;stroke-dashoffset:0;stroke-opacity:1"
       id="path874"
       cx="-130.16571"
       cy="221.9462"
       rx="1.8778037"
       ry="12.172047"
       transform="matrix(0.68362404,-0.72983435,0.70456439,0.70964006,0,0)" />
    <path
       style="fill:#8d5420;fill-opacity:1;stroke:#000000;stroke-width:0.61740911;stroke-linecap:butt;stroke-linejoin:miter;stroke-miterlimit:4;stroke-dasharray:none;stroke-opacity:1"
       d="m 77.198465,262.5918 c 3.302305,-3.07999 4.208604,-5.27204 3.989991,-20.89004 -0.218613,-15.618 -2.752037,-19.45357 -7.809755,-19.84593 -5.057718,-0.39236 -16.354851,-0.9345 -26.3968,-1.09662 -10.04195,-0.16211 -13.657599,10.33553 -14.324867,20.58589 -0.54017,8.29792 0.0673,18.88121 1.137275,23.34249 0.550024,1.43603 2.387723,0.80121 6.102848,2.22027 4.27655,1.6335 15.905269,5.22418 21.265098,4.8044 4.520281,0.27208 18.143164,-7.16656 17.882591,-7.64336 -1.801105,-1.85868 -14.402084,-12.06032 -18.520554,-18.16391 -4.118469,-6.1036 -2.579847,-5.30446 -2.004637,-4.30713 0.575207,0.99734 0.342894,1.51909 0.342894,1.51909"
       id="path927"
       inkscape:connector-curvature="0"
       sodipodi:nodetypes="czzzscscczzc" />
    <path
       style="opacity:1;vector-effect:none;fill:#226a6f;fill-opacity:0.40796024;stroke:#000000;stroke-width:0;stroke-linecap:butt;stroke-linejoin:miter;stroke-miterlimit:4;stroke-dasharray:none;stroke-dashoffset:0;stroke-opacity:1;font-variant-east_asian:normal"
       d="m 364.19531,244.36133 c -6.40448,2.53596 -19.55605,9.97241 -28.54571,13.61824 -15.45038,6.26603 -85.29494,54.08954 -110.61247,64.49427 -25.11559,10.32174 -59.88113,22.36167 -89.99595,24.61927 -19.15186,1.43575 -56.660233,-4.79531 -74.241731,-16.88142 14.261993,22.72423 75.946191,29.0403 99.856801,21.45042 23.0129,-5.63059 62.29543,-19.08581 83.05859,-29.89258 22.22673,-11.56853 48.11974,-36.53425 84.46485,-54.23242 20.10402,-9.78962 31.5069,-17.4759 36.01562,-23.17578 z"
       transform="matrix(0.26458333,0,0,0.26458333,0,197)"
       id="path889"
       inkscape:connector-curvature="0"
       sodipodi:nodetypes="csssccssc" />
    <path
       style="opacity:1;vector-effect:none;fill:#47226f;fill-opacity:0.16417913;stroke:#000000;stroke-width:0;stroke-linecap:butt;stroke-linejoin:miter;stroke-miterlimit:4;stroke-dasharray:none;stroke-dashoffset:0;stroke-opacity:1"
       d="m 129.0293,33.710938 c -2.21326,16.749526 -15.15158,25.799671 -27.45856,29.502195 2.06326,0.589735 3.85113,0.849365 5.997,0.857048 12.91662,-6.55e-4 22.78034,-9.778561 22.77992,-22.695181 -0.009,-2.610359 -0.45429,-5.200848 -1.31836,-7.664062 z"
       transform="matrix(0.26458333,0,0,0.26458333,0,197)"
       id="path1089"
       inkscape:connector-curvature="0"
       sodipodi:nodetypes="ccccc" />
    <path
       id="path1111"
       d="m 17.401979,205.91935 c -0.585591,4.43165 -3.953006,6.85222 -7.209228,7.83185 0.545905,0.15603 0.834981,0.20376 1.402744,0.20579 3.417521,-1.7e-4 6.155411,-2.59233 6.1553,-6.00985 -0.0023,-0.69066 -0.120195,-1.37606 -0.348816,-2.02779 z"
       style="opacity:1;vector-effect:none;fill:#47226f;fill-opacity:0.16417913;stroke:#000000;stroke-width:0;stroke-linecap:butt;stroke-linejoin:miter;stroke-miterlimit:4;stroke-dasharray:none;stroke-dashoffset:0;stroke-opacity:1"
       inkscape:connector-curvature="0"
       sodipodi:nodetypes="ccccc" />
    <path
       id="circle5887"
       style="opacity:1;vector-effect:none;fill:#b8e6e9;fill-opacity:1;stroke:#000000;stroke-width:0.59760052;stroke-linecap:butt;stroke-linejoin:miter;stroke-miterlimit:4;stroke-dasharray:none;stroke-dashoffset:0;stroke-opacity:1"
       sodipodi:type="arc"
       sodipodi:cx="11.594654"
       sodipodi:cy="207.94708"
       sodipodi:rx="6.1880498"
       sodipodi:ry="6.1880498"
       sodipodi:start="3.1415927"
       sodipodi:end="0"
       d="m 5.4066043,207.94708 a 6.1880498,6.1880498 0 0 1 3.0940249,-5.35901 6.1880498,6.1880498 0 0 1 6.1880498,0 6.1880498,6.1880498 0 0 1 3.094025,5.35901 h -6.18805 z" />
    <path
       style="fill:#b8e6e9;fill-opacity:1;stroke:#000000;stroke-width:0.59760052;stroke-miterlimit:4;stroke-dasharray:none;stroke-dashoffset:0;stroke-opacity:1;font-variant-east_asian:normal;opacity:1;vector-effect:none;stroke-linecap:butt;stroke-linejoin:miter"
       id="circle5889"
       sodipodi:type="arc"
       sodipodi:cx="28.300022"
       sodipodi:cy="207.94708"
       sodipodi:rx="6.1880498"
       sodipodi:ry="6.1880498"
       sodipodi:start="3.1415927"
       sodipodi:end="0"
       d="m 22.111972,207.94708 a 6.1880498,6.1880498 0 0 1 6.18805,-6.18805 6.1880498,6.1880498 0 0 1 6.18805,6.18805 h -6.18805 z" />
    <path
       style="opacity:1;vector-effect:none;fill:#3c2c1e;fill-opacity:0.68656718;stroke:#000000;stroke-width:0;stroke-linecap:butt;stroke-linejoin:miter;stroke-miterlimit:4;stroke-dasharray:none;stroke-dashoffset:0;stroke-opacity:1"
       d="m 59.21177,242.71236 c 2.232479,2.75763 6.456651,7.17317 11.791824,7.71332 5.630758,0.57008 8.836318,-0.36681 9.880789,-1.12405 0.05962,6.26703 -1.207186,11.24287 -3.625762,12.74702 -3.606414,-3.17105 -14.924467,-12.52537 -18.101675,-18.83601 0.04293,-0.16895 0.06342,-0.26181 0.05482,-0.50028 z"
       id="path993"
       inkscape:connector-curvature="0"
       sodipodi:nodetypes="csccccc" />
    <path
       style="opacity:1;vector-effect:none;fill:#3c2c1e;fill-opacity:0.68656718;stroke:#000000;stroke-width:0;stroke-linecap:butt;stroke-linejoin:miter;stroke-miterlimit:4;stroke-dasharray:none;stroke-dashoffset:0;stroke-opacity:1"
       d="m 288.02413,255.31625 c -5.98052,3.74616 -48.63981,18.04955 -69.02436,18.247 -10.31486,0.0999 -73.07748,-16.01558 -80.7463,-19.07864 -7.84095,-3.13181 -11.83884,-12.18969 -11.83884,-12.18969 0.67396,5.32897 1.60131,10.85553 2.39752,13.5806 2.67097,4.34192 8.4822,2.09164 22.52362,7.45502 16.16334,6.17386 59.51833,19.53387 79.77595,17.9473 17.08453,1.02834 66.898,-26.03683 65.91315,-27.83891 0,0 -5.49969,-0.31572 -9.00074,1.87732 z"
       transform="matrix(0.26458333,0,0,0.26458333,0,197)"
       id="path9377"
       inkscape:connector-curvature="0"
       sodipodi:nodetypes="ssscccccs" />
    <path
       style="opacity:1;vector-effect:none;fill:#3c2c1e;fill-opacity:0.31100482;stroke:#000000;stroke-width:0;stroke-linecap:butt;stroke-linejoin:miter;stroke-miterlimit:4;stroke-dasharray:none;stroke-dashoffset:0;stroke-opacity:1"
       d="m 32.77792,246.42155 c 1.198292,4.44471 4.363065,7.55402 7.414794,8.20834 3.051728,0.65432 6.813002,-0.81701 9.762047,-0.56289 5.796814,0.49951 10.124698,4.19791 8.766134,5.98888 -2.036798,2.68507 -13.319331,-2.66292 -17.508555,-1.95708 -2.042455,0.34413 -5.850665,1.75305 -7.939608,1.55721 -0.124918,-4.40229 -0.890754,-8.82659 -0.494812,-13.23446 z"
       id="path9410"
       inkscape:connector-curvature="0"
       sodipodi:nodetypes="csssscc" />
  </g>
</svg>
